<?xml version="1.0" standalone="no"?>
<!DOCTYPE svg PUBLIC "-//W3C//DTD SVG 20010904//EN"
 "http://www.w3.org/TR/2001/REC-SVG-20010904/DTD/svg10.dtd">
<svg version="1.0" xmlns="http://www.w3.org/2000/svg"
 width="528.000000pt" height="528.000000pt" viewBox="0 0 528.000000 528.000000"
 preserveAspectRatio="xMidYMid meet">
<metadata>
Created by potrace 1.14, written by Peter Selinger 2001-2017
</metadata>
<g transform="translate(0.000000,528.000000) scale(0.100000,-0.100000)"
fill="#000000" stroke="none">
<path d="M981 5188 c27 -68 46 -139 54 -201 4 -28 9 -59 11 -71 9 -40 5 -121
-8 -158 -14 -38 -178 -222 -234 -261 -88 -62 -181 -157 -297 -307 -26 -33 -67
-100 -67 -109 0 -5 -4 -11 -9 -13 -11 -4 -102 -182 -131 -258 -20 -51 -56
-161 -66 -199 -24 -100 -25 -109 -41 -216 -9 -63 -10 -332 -1 -405 9 -80 36
-203 65 -300 13 -47 27 -94 30 -105 2 -11 8 -29 13 -40 5 -11 21 -51 35 -90
15 -38 43 -101 62 -139 32 -64 33 -70 17 -79 -79 -44 -135 -174 -127 -292 5
-78 37 -141 101 -200 157 -145 190 -189 302 -400 23 -44 46 -81 51 -83 5 -2 9
-9 9 -16 0 -18 60 -71 97 -85 18 -7 54 -14 82 -15 l50 -1 38 -62 c21 -35 41
-63 46 -63 4 0 7 -7 7 -15 0 -8 5 -15 10 -15 6 0 10 -4 10 -10 0 -11 5 -17 94
-124 95 -113 249 -261 329 -314 20 -13 37 -29 37 -33 0 -5 5 -9 12 -9 6 0 26
-11 44 -25 75 -57 374 -215 408 -215 7 0 16 -3 20 -7 4 -5 11 -8 14 -9 4 0 14
-3 22 -7 33 -13 143 -47 174 -52 18 -4 45 -18 59 -31 14 -13 28 -24 31 -24 3
0 26 -13 52 -30 44 -28 152 -74 205 -86 76 -19 281 -11 339 13 8 3 21 7 28 9
19 4 163 76 176 89 28 26 98 68 142 85 115 43 396 186 414 210 3 4 16 13 30
20 67 35 238 178 340 285 94 98 105 111 166 200 33 47 82 116 109 153 49 65
52 67 100 70 61 4 113 30 144 73 13 17 55 96 94 173 94 189 126 237 219 327
97 96 130 159 129 251 -1 35 -2 70 -4 78 -19 82 -52 140 -100 181 l-31 27 37
60 c20 33 37 63 37 67 0 4 9 20 21 36 11 16 18 29 14 29 -3 0 3 17 14 37 10
21 19 41 20 46 0 4 7 20 16 36 14 29 63 186 70 226 2 11 8 43 13 70 24 114 32
314 17 416 -9 68 -24 152 -30 177 -3 12 -7 32 -10 43 -21 98 -102 292 -144
348 l-18 24 -39 -43 c-22 -23 -41 -45 -44 -49 -15 -18 -91 -81 -99 -81 -5 0
-12 21 -17 48 -4 26 -8 49 -9 52 0 3 -5 23 -10 45 -11 51 -9 46 -38 140 -85
279 -227 511 -421 694 -27 25 -57 54 -67 63 -24 23 -165 121 -214 149 -44 25
-177 93 -185 95 -3 0 -18 6 -35 13 -87 38 -255 91 -335 107 -14 3 -32 7 -40 9
-8 3 -32 7 -54 11 -21 3 -48 8 -60 10 -11 3 -43 7 -71 10 -27 3 -63 7 -80 10
-68 12 -474 11 -580 -2 -254 -30 -250 -30 -380 -39 -49 -3 -115 -8 -145 -11
-79 -6 -395 -6 -460 0 -30 3 -80 8 -110 11 -77 8 -167 22 -250 41 -14 3 -36 7
-50 10 -36 7 -160 56 -166 66 -3 4 -9 8 -14 8 -6 0 0 -24 11 -52z m469 -1940
c0 -4 -4 -8 -9 -8 -6 0 -12 4 -15 8 -3 5 1 9 9 9 8 0 15 -4 15 -9z m-43 -4
c-3 -3 -12 -4 -19 -1 -8 3 -5 6 6 6 11 1 17 -2 13 -5z m113 -4 c8 -5 11 -10 5
-10 -5 0 -17 5 -25 10 -8 5 -10 10 -5 10 6 0 17 -5 25 -10z m86 -36 c18 -14
18 -14 -6 -3 -31 14 -36 19 -24 19 6 0 19 -7 30 -16z m64 -24 c0 -5 -2 -10 -4
-10 -3 0 -8 5 -11 10 -3 6 -1 10 4 10 6 0 11 -4 11 -10z m2847 -1381 c-3 -10
-1 -19 3 -19 21 0 -29 -124 -54 -133 -13 -5 -15 5 -15 58 1 35 -2 69 -6 76 -4
6 7 24 25 41 30 26 34 28 43 13 5 -9 7 -25 4 -36z m-2146 -1546 c13 -16 12
-17 -3 -4 -17 13 -22 21 -14 21 2 0 10 -8 17 -17z"/>
</g>
</svg>
