<?xml version="1.0" encoding="utf-8"?>
<!-- Generator: Adobe Illustrator 23.0.0, SVG Export Plug-In . SVG Version: 6.00 Build 0)  -->
<svg version="1.1" id="Layer_1" xmlns="http://www.w3.org/2000/svg" xmlns:xlink="http://www.w3.org/1999/xlink" x="0px" y="0px"
	 viewBox="0 0 32.12 32.83" style="enable-background:new 0 0 32.12 32.83;" xml:space="preserve">
<style type="text/css">
	.st0{fill:#5D030B;stroke:#5D030B;stroke-width:0.3914;stroke-miterlimit:10;}
	.st1{fill:#5C216B;}
	.st2{fill:#5D030B;}
	.st3{fill:#FFFFFF;}
	.st4{fill:#A37D46;}
	.st5{fill:#C2CADB;}
	.st6{fill:#FFEB9B;}
	.st7{fill:#FDC17C;}
	.st8{fill:#DB8149;}
	.st9{fill:none;stroke:#110103;stroke-width:0.1228;stroke-miterlimit:10;}
	.st10{fill:#E9AC44;}
	.st11{fill:#6B4F2A;}
	.st12{fill:none;stroke:#5D030B;stroke-width:0.1228;stroke-miterlimit:10;}
</style>
<path class="st1" d="M27.3,22.64c0.01-0.01,0.02-0.01,0.04-0.02l0-0.36c0-0.22-0.02-0.43-0.07-0.63c-0.1-0.49-0.32-0.93-0.62-1.3
	c-0.44-0.54-1.05-0.94-1.76-1.09l0,0c-0.21-0.05-0.43-0.07-0.66-0.07l-3.36,0c-1.21,0-2.26,0.7-2.77,1.71
	c-0.59-0.7-1.21-1.04-1.86-1.01c-0.74,0.03-1.33,0.53-1.72,1c-0.51-1-1.56-1.69-2.76-1.69l-3.36,0c-0.85,0-1.62,0.34-2.18,0.9
	c-0.13,0.13-0.25,0.27-0.36,0.42c0.01,0.04,0.03,0.09,0.04,0.13c-0.23,0.35-0.4,0.73-0.52,1.14c-0.01-0.01-0.03-0.02-0.04-0.03
	c-0.02,0.09-0.03,0.17-0.04,0.26C5.3,22.1,5.3,22.19,5.3,22.29l0,1.87c0,0.03,0,0.05,0,0.08l0,0c0.01,0.21,0.03,0.41,0.08,0.6
	c0.01,0.03,0.01,0.06,0.02,0.1c0.01,0.04,0.02,0.07,0.03,0.11c0.01,0.03,0.02,0.06,0.03,0.09c0.01,0.03,0.02,0.06,0.03,0.1
	c0.05,0.12,0.1,0.24,0.16,0.35c0,0.01,0.01,0.01,0.01,0.02c0.02,0.04,0.04,0.07,0.06,0.11c0.02,0.04,0.05,0.08,0.07,0.12
	c0,0.01,0.01,0.01,0.01,0.02c0.42,0.65,1.08,1.13,1.85,1.31c0.24,0.06,0.48,0.09,0.74,0.09l3.36,0c1.71,0,3.1-1.39,3.1-3.1l0-1.87
	c0-0.14-0.01-0.28-0.03-0.42c0.26-0.43,0.82-1.13,1.44-1.15c0.59-0.02,1.14,0.58,1.53,1.17c-0.02,0.13-0.03,0.27-0.03,0.41l0,1.87
	c0,1.71,1.39,3.1,3.1,3.1l3.36,0c0.25,0,0.49-0.03,0.71-0.08c0.57-0.13,1.08-0.43,1.48-0.83c0,0,0,0,0,0
	c0.18-0.18,0.34-0.38,0.47-0.6c0.15-0.25,0.26-0.51,0.34-0.8c0.01-0.03,0.01-0.05,0.02-0.08l0,0c0,0,0,0,0,0c0,0,0-0.01,0.01-0.01
	c0,0,0,0,0,0c0.02-0.08,0.04-0.17,0.05-0.26c0-0.03,0.01-0.06,0.01-0.09c0.01-0.12,0.02-0.24,0.02-0.36l0-0.85
	c-0.02,0.01-0.04,0.01-0.06,0.02c0-0.09,0.01-0.18,0.01-0.27c0-0.13-0.01-0.25-0.02-0.38c0,0,0.01,0,0.01,0
	C27.28,22.65,27.29,22.65,27.3,22.64z M14.03,24.15c0,1.25-1.01,2.27-2.26,2.27l-3.36,0c-1.25,0-2.27-1.02-2.27-2.27l0-1.87
	c0-1.25,1.01-2.27,2.26-2.27l3.36,0c1.06,0,1.95,0.73,2.2,1.71c0.03,0.12,0.05,0.24,0.06,0.36c0.01,0.06,0.01,0.13,0.01,0.19
	L14.03,24.15z M26.51,24.14c0,0.14-0.01,0.27-0.04,0.4c-0.06,0.36-0.21,0.69-0.43,0.97c-0.41,0.54-1.07,0.89-1.8,0.89l-3.36,0
	c-1.25,0-2.27-1.02-2.27-2.27l0-1.87c0-0.06,0-0.13,0.01-0.19c0.01-0.13,0.03-0.25,0.06-0.37c0.25-0.98,1.14-1.72,2.2-1.72l3.36,0
	c0.17,0,0.35,0.02,0.51,0.06c1.01,0.23,1.76,1.13,1.76,2.21L26.51,24.14z"/>
<path class="st2" d="M27.34,22.62l0,0.66c-0.02,0.01-0.04,0.01-0.06,0.02c0-0.09,0.01-0.18,0.01-0.27c0-0.13-0.01-0.25-0.02-0.38
	c0,0,0.01,0,0.01,0c0.01,0,0.01-0.01,0.02-0.01C27.31,22.64,27.32,22.63,27.34,22.62z"/>
<path class="st2" d="M27.51,20.07c-0.01,0.04-0.02,0.07-0.03,0.11c-0.04,0.18-0.09,0.36-0.14,0.54c-0.02,0.01-0.05,0.03-0.07,0.04
	c0.06-0.22,0.11-0.43,0.17-0.65C27.46,20.09,27.49,20.08,27.51,20.07z"/>
<path class="st2" d="M29.25,18.73c0.04-0.06,0.09-0.13,0.13-0.19c-0.13-0.03-0.25-0.04-0.38-0.06c-0.15-0.02-0.3-0.03-0.45-0.03
	c0.24-0.02,0.48-0.02,0.71,0.02l0.12,0.05l0.07,0.03c0,0,0,0,0,0l0.13,0.06L29.25,18.73z"/>
<path class="st2" d="M29.55,20.55c-0.03,0.09-0.4,0.05-0.92,0.26c-0.13,0.05-0.27,0.11-0.42,0.19c0.22,0.37,0.21,0.88,0.11,1.27
	c-0.1,0.39-0.34,0.72-0.71,0.9c0,0,0,0-0.01,0c-0.01,0.01-0.02,0.01-0.04,0.02c0-0.03-0.01-0.06-0.01-0.08c0,0,0.01,0,0.01,0
	c0.37-0.17,0.6-0.51,0.71-0.9c0.11-0.4,0.11-0.91-0.11-1.27c0.15-0.08,0.29-0.14,0.42-0.19c0.53-0.21,0.89-0.16,0.92-0.26
	c0,0,0,0,0-0.01c0.01,0.01,0.01,0.01,0.02,0.02C29.55,20.52,29.56,20.54,29.55,20.55z"/>
<path class="st2" d="M4.16,20.99C4.16,21,4.15,21.01,4.15,21.02c-0.14-0.06-0.27-0.12-0.39-0.15c-0.55-0.19-0.93-0.14-0.97-0.23
	c-0.01-0.02,0-0.04,0.04-0.07c0.08,0.07,0.43,0.05,0.91,0.24C3.87,20.85,4.01,20.91,4.16,20.99z"/>
<path class="st2" d="M5.05,20.8C5,20.78,4.96,20.75,4.91,20.73c0.04,0.02,0.09,0.04,0.14,0.06C5.04,20.8,5.05,20.8,5.05,20.8z"/>
<path class="st2" d="M5.08,24.9C5.08,24.9,5.08,24.9,5.08,24.9c-0.04-0.01-0.07-0.02-0.11-0.03c0,0,0,0,0,0c0,0,0,0,0,0
	c-0.01-0.01-0.02-0.02-0.03-0.02c-0.02-0.02-0.04-0.04-0.06-0.06c-0.01-0.01-0.01-0.02-0.02-0.03c-0.21-0.3-0.36-0.66-0.52-0.99
	c-0.2-0.42-0.4-0.83-0.65-1.22c-0.04-0.07-0.09-0.14-0.14-0.2c0.21,0.26,0.39,0.54,0.56,0.82c0.22,0.38,0.42,0.77,0.64,1.16
	c0.08,0.15,0.17,0.29,0.27,0.43C5.03,24.8,5.06,24.85,5.08,24.9z"/>
<path class="st2" d="M5.9,20.63c-0.23,0.35-0.4,0.73-0.52,1.14c-0.01-0.01-0.03-0.02-0.04-0.03c0.02-0.15,0.06-0.29,0.11-0.43
	c0.08-0.24,0.19-0.47,0.32-0.69c0.01-0.02,0.02-0.04,0.03-0.05c0.02-0.02,0.03-0.05,0.05-0.07C5.87,20.55,5.89,20.59,5.9,20.63z"/>
<path class="st2" d="M5.65,25.59c-0.06-0.11-0.13-0.22-0.19-0.33c-0.02-0.04-0.05-0.08-0.07-0.13c-0.03-0.06-0.05-0.13-0.04-0.2
	c0.01,0,0.03,0,0.03,0l0.01,0c0.01,0.04,0.02,0.07,0.03,0.11c0.01,0.03,0.02,0.06,0.03,0.09c0.01,0.03,0.02,0.06,0.03,0.1
	C5.53,25.35,5.59,25.47,5.65,25.59z"/>
<path class="st2" d="M5.72,25.72C5.72,25.72,5.72,25.72,5.72,25.72c-0.02-0.04-0.05-0.07-0.06-0.11C5.68,25.64,5.7,25.68,5.72,25.72
	z"/>
<path class="st2" d="M18.07,28.35c-0.2,0-0.36,0.16-0.38,0.35c0,0,0,0.01-0.01,0.01c-0.02,0.02-0.04,0.04-0.07,0.07
	c-0.01,0.01-0.04,0.03-0.05,0.04c-0.03,0.02-0.06,0.04-0.09,0.05c-0.06,0.03-0.12,0.06-0.17,0.09c0,0-0.01,0-0.01,0.01
	c-0.01,0-0.02,0.01-0.03,0.01c-0.04,0.01-0.08,0.03-0.12,0.04c-0.17,0.06-0.34,0.09-0.51,0.12c-0.01,0-0.02,0-0.03,0
	c0,0-0.01,0-0.02,0c-0.05,0.01-0.1,0.01-0.15,0.01c-0.09,0.01-0.19,0.01-0.28,0.01c-0.1,0-0.19,0-0.29-0.01
	c-0.05,0-0.09-0.01-0.14-0.01c-0.01,0-0.1-0.01-0.11-0.02c-0.17-0.03-0.35-0.08-0.51-0.13c-0.03-0.01-0.06-0.02-0.09-0.03
	c0,0,0,0,0,0c-0.02-0.01-0.03-0.01-0.05-0.02c-0.07-0.03-0.13-0.07-0.2-0.11c-0.18-0.11-0.43-0.04-0.53,0.14
	c-0.11,0.19-0.04,0.42,0.14,0.53c0.74,0.45,1.69,0.52,2.53,0.37c0.36-0.06,0.72-0.19,1.03-0.38c0.27-0.17,0.52-0.43,0.53-0.77
	C18.47,28.53,18.28,28.35,18.07,28.35z M17.68,28.74c0,0,0-0.01,0-0.01c0,0,0,0,0,0C17.68,28.73,17.68,28.73,17.68,28.74z"/>
<path class="st2" d="M24.93,14.38c-0.02,0-0.04-0.01-0.05-0.01c-0.01-0.01-0.02-0.01-0.03-0.01L24.93,14.38z"/>
<path class="st2" d="M29.63,18.59l-0.05,0.02l-0.33,0.12c0.04-0.06,0.09-0.13,0.13-0.19c0.02,0,0.05,0.01,0.08,0.01c0,0,0,0,0,0
	C29.51,18.56,29.57,18.57,29.63,18.59z"/>
<g>
	<path class="st2" d="M5.81,20.58c-0.01,0.02-0.02,0.03-0.03,0.05c0.03,0.01,0.06,0.01,0.09,0.02C5.85,20.63,5.83,20.6,5.81,20.58z
		 M5.72,25.72c-0.02-0.04-0.04-0.07-0.06-0.11C5.68,25.64,5.7,25.68,5.72,25.72c0.02,0.04,0.05,0.08,0.07,0.12
		C5.77,25.8,5.75,25.76,5.72,25.72z"/>
</g>
<g>
	<path class="st2" d="M14.02,22.09c-0.07-0.1-0.1-0.24-0.06-0.36C13.99,21.85,14.01,21.97,14.02,22.09z"/>
	<path class="st2" d="M18.61,22.09c0.01-0.13,0.03-0.25,0.06-0.37C18.71,21.85,18.69,21.98,18.61,22.09z"/>
</g>
<g>
	<path class="st2" d="M5.65,25.59c-0.06-0.11-0.13-0.22-0.19-0.33c-0.02-0.04-0.05-0.08-0.07-0.13c-0.03-0.06-0.05-0.13-0.04-0.2
		c0-0.03,0.01-0.06,0.02-0.09c0.01,0.03,0.01,0.06,0.02,0.1c0.01,0.04,0.02,0.07,0.03,0.11c0.01,0.03,0.02,0.06,0.03,0.09
		c0.01,0.03,0.02,0.06,0.03,0.1C5.53,25.35,5.59,25.47,5.65,25.59z"/>
	<path class="st2" d="M26.43,26.33c-0.96,1.63-2.93,3.93-6.83,5.36c-0.27,0.24-1.39,1.15-2.93,1.15c-0.86,0-1.85-0.28-2.9-1.12
		c-0.73-0.15-5.16-1.24-7.96-5.86c0.42,0.65,1.08,1.13,1.85,1.31c2.78,3.19,6.29,3.85,6.33,3.86l0.09,0.02l0.07,0.06
		c0.78,0.64,1.51,0.92,2.17,0.99l0,0c1.63,0.18,2.77-0.91,2.83-0.98l0.06-0.06l0.07-0.03c0.09-0.03,0.19-0.07,0.28-0.1
		c0,0,0.01,0,0.01,0c0.08-0.03,0.15-0.06,0.22-0.09c0.1-0.04,0.19-0.08,0.29-0.12c0.07-0.03,0.14-0.06,0.21-0.09
		c0.65-0.29,1.23-0.6,1.75-0.93c0.06-0.04,0.12-0.08,0.18-0.11c0.08-0.05,0.16-0.1,0.23-0.16c0.05-0.03,0.09-0.06,0.14-0.09
		c0.3-0.21,0.58-0.42,0.83-0.64c0.05-0.04,0.1-0.09,0.15-0.13c0.05-0.04,0.1-0.09,0.15-0.13c0.05-0.04,0.1-0.09,0.14-0.13
		c0.13-0.13,0.26-0.25,0.39-0.38c0.02-0.02,0.05-0.05,0.07-0.07c0.05-0.05,0.09-0.1,0.14-0.15c0.04-0.05,0.09-0.09,0.13-0.14
		c0.03-0.04,0.06-0.07,0.09-0.11c0.09-0.1,0.18-0.21,0.26-0.31C25.52,27.02,26.03,26.73,26.43,26.33z"/>
	<path class="st2" d="M26.47,24.54c-0.06,0.36-0.21,0.69-0.43,0.97C26.25,25.1,26.39,24.76,26.47,24.54z"/>
</g>
<path class="st2" d="M9.31,12.76L9.31,12.76c-0.01,0-0.02-0.01-0.03-0.01C9.29,12.75,9.3,12.76,9.31,12.76z"/>
<path class="st3" d="M14.02,22.09c-0.01-0.12-0.03-0.24-0.06-0.36c-0.25-0.98-1.14-1.72-2.2-1.71l-3.36,0
	c-1.25,0-2.27,1.02-2.26,2.27l0,1.87c0,1.25,1.02,2.27,2.27,2.27l3.36,0c1.25,0,2.27-1.02,2.26-2.27l0-1.87
	C14.03,22.22,14.02,22.15,14.02,22.09z M13.29,22.78c-0.05,0.15-0.19,0.25-0.34,0.25c-0.04,0-0.07-0.01-0.11-0.02
	c-0.19-0.06-0.29-0.27-0.23-0.46c0.13-0.4,0.12-0.71-0.04-0.95c-0.26-0.39-0.88-0.52-1.09-0.53c-0.2-0.02-0.35-0.19-0.33-0.39
	c0.02-0.2,0.19-0.35,0.39-0.33c0.05,0,1.13,0.09,1.64,0.85C13.45,21.63,13.5,22.16,13.29,22.78z"/>
<path class="st3" d="M24.23,20l-3.36,0c-1.06,0-1.95,0.73-2.2,1.72c-0.03,0.12-0.05,0.24-0.06,0.37c-0.01,0.06-0.01,0.12-0.01,0.19
	l0,1.87c0,1.25,1.02,2.27,2.27,2.27l3.36,0c0.73,0,1.39-0.35,1.8-0.89c0.22-0.28,0.37-0.61,0.43-0.97c0.02-0.13,0.04-0.27,0.04-0.4
	l0-1.87C26.5,21.02,25.48,20,24.23,20z M25.87,22.76c-0.05,0.15-0.19,0.25-0.34,0.25c-0.04,0-0.07-0.01-0.11-0.02
	c-0.19-0.06-0.29-0.27-0.23-0.46c0.13-0.4,0.12-0.71-0.04-0.95c-0.26-0.39-0.88-0.52-1.09-0.53c-0.2-0.02-0.35-0.19-0.33-0.39
	c0.02-0.2,0.19-0.35,0.39-0.33c0.05,0,1.13,0.09,1.64,0.85C26.03,21.61,26.07,22.14,25.87,22.76z"/>
<g>
	<path class="st1" d="M25.87,22.76c-0.05,0.15-0.19,0.25-0.34,0.25c-0.04,0-0.07-0.01-0.11-0.02c-0.19-0.06-0.29-0.27-0.23-0.46
		c0.13-0.4,0.12-0.71-0.04-0.95c-0.26-0.39-0.88-0.52-1.09-0.53c-0.2-0.02-0.35-0.19-0.33-0.39c0.02-0.2,0.19-0.35,0.39-0.33
		c0.05,0,1.13,0.09,1.64,0.85C26.03,21.61,26.07,22.14,25.87,22.76z"/>
</g>
<g>
	<path class="st1" d="M13.29,22.78c-0.05,0.15-0.19,0.25-0.34,0.25c-0.04,0-0.07-0.01-0.11-0.02c-0.19-0.06-0.29-0.27-0.23-0.46
		c0.13-0.4,0.12-0.71-0.04-0.95c-0.26-0.39-0.88-0.52-1.09-0.53c-0.2-0.02-0.35-0.19-0.33-0.39c0.02-0.2,0.19-0.35,0.39-0.33
		c0.05,0,1.13,0.09,1.64,0.85C13.45,21.63,13.5,22.16,13.29,22.78z"/>
</g>
<path class="st4" d="M13.26,2.73c-0.07,0-0.14-0.01-0.21-0.01c-0.3,0-0.6-0.01-0.9-0.03c-0.59-0.04-1.18-0.15-1.76-0.31
	C9.81,2.22,9.24,2.02,8.68,1.77c-0.2-0.09-0.4-0.18-0.59-0.28c0.03,0,0.06,0.01,0.09,0.01l0,0l0,0l0.03,0.01
	c0.45,0.16,0.9,0.32,1.35,0.48C10.78,2.42,11.99,2.62,13.26,2.73z"/>
<path class="st4" d="M30.35,13.33c0,0-0.17,3.8-0.96,5.19c0,0,0,0,0,0c0,0-0.01,0.01-0.01,0.01c-0.13-0.03-0.25-0.04-0.38-0.06
	c-0.15-0.02-0.3-0.03-0.45-0.03c0,0,0,0,0,0c-0.06,0-0.12,0-0.18,0c-0.22,0.01-0.44,0.04-0.66,0.1c-0.01,0-0.03,0.01-0.04,0.01
	c0-0.05,0-0.11,0-0.16c-0.01-0.26-0.03-0.52-0.06-0.78c-0.06-0.52-0.18-1.03-0.36-1.53c-0.05-0.13-0.1-0.26-0.16-0.39
	c-0.17-0.36-0.38-0.7-0.64-1.01c-0.21-0.24-0.45-0.46-0.71-0.64c-0.19-0.13-0.39-0.25-0.6-0.34l-0.03-0.01l-0.06-0.01L25,13.68
	l-0.07-0.02c-0.05-0.01-0.09-0.03-0.14-0.05c-0.09-0.04-0.19-0.08-0.28-0.13c-0.18-0.1-0.35-0.21-0.51-0.34
	c-0.23-0.2-0.43-0.43-0.6-0.68c0.12-0.08,0.23-0.16,0.35-0.25c0.1-0.07,0.19-0.14,0.28-0.22c0.12-0.09,0.23-0.19,0.34-0.29
	c0.2-0.18,0.39-0.37,0.55-0.58c0.17-0.21,0.31-0.44,0.42-0.68l-0.01-0.01c0.38-0.52,0.39-0.96,0.39-0.96
	c-3.89,4.03-10.84,3.57-10.84,3.57c-0.26-0.07-0.52-0.16-0.77-0.25c-0.79-0.3-1.54-0.71-2.23-1.21c-0.87-1-2.93-3.49-4.6-6.31
	c0,0-0.28,3,1.4,4.65c0,0-0.87,0.43-0.45,0.89c0,0-2.56-1.94-2.61-2.57c0,0,0.04,2.32,1.21,3.39c0,0-1.82-0.33-2.43,3.66
	c0,0-1.07-2.23-0.24-6.03c0,0-0.17,0.17-0.41,0.48C3.8,9.6,3.84,9.47,3.88,9.34C3.82,9.5,3.76,9.66,3.7,9.82
	c-0.83,1.14-2.3,3.94-0.42,7.68c-0.05-0.05-1.49-1.6-1.84-4.58c0.01-1.08,0.21-2.16,0.57-3.18c0,0,0,0,0,0
	c0.81-1.24,1.8-2.41,3.14-3.08c0.48-0.24,0.97-0.44,1.39-0.77c1.4-1.08,1.29-2.87,0.29-4.11C7,1.94,7.16,2.1,7.32,2.26
	C8,2.91,8.73,3.5,9.51,4.04c0.77,0.54,1.59,1.03,2.46,1.42c0.44,0.19,0.88,0.36,1.35,0.46c0.23,0.05,0.47,0.1,0.71,0.11
	c0.24,0.02,0.48,0.01,0.71-0.03l0-0.01c-0.47-0.06-0.9-0.21-1.31-0.39c-0.42-0.19-0.82-0.4-1.21-0.63
	c-0.78-0.47-1.54-0.99-2.28-1.53C9.79,3.33,9.65,3.22,9.5,3.11C9.44,3.06,9.37,3.01,9.3,2.96C9.23,2.9,9.15,2.85,9.08,2.79
	C8.79,2.57,8.51,2.35,8.22,2.14C8.06,2.01,7.9,1.89,7.74,1.77C7.5,1.59,7.25,1.41,7.01,1.23c0.12,0.04,0.25,0.08,0.37,0.12
	C8.26,1.96,9.2,2.5,10.22,2.89c0.59,0.23,1.21,0.4,1.84,0.51c0.31,0.05,0.63,0.09,0.94,0.12c0.1,0.01,0.19,0.02,0.29,0.02
	c0.05,0,0.1,0,0.15,0c0.08,0,0.16,0,0.23,0c0.08,0,0.16,0,0.23-0.01l0.03,0c0.07,0,0.14,0,0.21-0.01c0.03,0,0.05,0,0.08,0
	c0.11,0,0.21-0.01,0.31-0.01l0.02,0c0.14,0,0.27-0.01,0.41-0.01c0.07,0,0.14,0,0.2-0.01c0.2-0.01,0.39-0.01,0.59,0
	c0.08,0,0.15,0,0.23,0c0.39,0.01,0.79,0.03,1.17,0.08c0.14,0.02,0.29,0.04,0.43,0.07c0.15,0.02,0.29,0.06,0.44,0.09
	c0.15,0.04,0.29,0.08,0.44,0.12c0.29,0.09,0.58,0.19,0.86,0.31c0.56,0.22,1.1,0.5,1.6,0.83c0.01,0,0.01,0.01,0.02,0.01l0.03-0.04
	c-0.48-0.4-1.01-0.73-1.56-1.01c-0.28-0.14-0.56-0.27-0.85-0.39c-0.15-0.06-0.29-0.12-0.44-0.17c-0.15-0.05-0.3-0.1-0.45-0.14
	c-0.31-0.09-0.62-0.15-0.93-0.21c0.44-0.03,7.46-0.4,9.24,5.65c0,0,0.38-1.1,0.98-1.48c0,0,0.97,2.59,0.8,3.71l0.02,0.59l1.46-0.25
	c0,0,0.3,2.63-0.59,3.07C28.72,14.32,29.75,14,30.35,13.33z"/>
<path class="st2" d="M13.12,16.7c0,0-0.01-0.01-0.01-0.01c-0.11-0.1-0.23-0.19-0.35-0.28c-0.82-0.61-1.75-1.04-2.72-1.35
	c-0.19-0.06-0.38-0.11-0.57-0.17c-0.29-0.08-0.58-0.14-0.88-0.19l0,0c0,0-0.01,0-0.01,0c-0.01,0-0.03,0-0.05-0.01
	c-0.01,0-0.02,0-0.03,0c-0.01,0-0.01,0-0.02,0c-0.23-0.02-0.72-0.01-0.88,0.46c-0.24,0.69-0.48,1.38-0.72,2.07
	c-0.09,0.27,0.19,0.48,0.43,0.43c0.08-0.02,0.16-0.03,0.23-0.04c0.03,0,0.07-0.01,0.1-0.01c0.03,0,0.08-0.01,0.1-0.01
	c0.11-0.01,0.22-0.02,0.34-0.03c0.14-0.01,0.27-0.02,0.41-0.02c0.41-0.02,0.82-0.01,1.23,0.03c0.29,0.03,0.57,0.08,0.89,0.15
	c0.27,0.06,0.53,0.13,0.8,0.21c0.21,0.06,0.41,0.13,0.61,0.21c0.03,0.01,0.05,0.02,0.08,0.03c0,0,0,0,0,0
	c0.03,0.01,0.07,0.03,0.1,0.04c0.06,0.03,0.12,0.06,0.18,0.09c0.03,0.02,0.06,0.03,0.09,0.05c0.08,0.04,0.17,0.09,0.24,0.14
	c0.22,0.15,0.52-0.05,0.52-0.3l0-1.04C13.22,16.98,13.24,16.82,13.12,16.7z M12.53,17.6c-0.02-0.01-0.03-0.01-0.05-0.02
	c-1-0.44-2.09-0.7-3.18-0.75c-0.18-0.01-0.37-0.01-0.56-0.01c-0.34,0-0.68,0.02-1.02,0.06c0.11-0.3,0.21-0.61,0.31-0.91
	c0.01-0.02,0.01-0.04,0.02-0.06c0-0.01,0.01-0.01,0.01-0.02c0.01-0.02,0.01-0.04,0.02-0.06c0.14-0.42,0.61-0.38,0.78-0.35
	c0.03,0.01,0.05,0.01,0.06,0.01c0,0,0,0,0,0c0.1,0.02,0.19,0.04,0.29,0.07c0.09,0.02,0.18,0.05,0.27,0.07
	c0.29,0.08,0.58,0.17,0.86,0.27c0.08,0.03,0.16,0.06,0.25,0.09c0.03,0.01,0.07,0.03,0.1,0.04c0.01,0.01,0.02,0.01,0.03,0.01
	c0,0,0.01,0,0.02,0.01c0.12,0.05,0.25,0.11,0.37,0.17c0.4,0.2,0.79,0.43,1.16,0.69c0.06,0.05,0.13,0.09,0.19,0.14
	c0,0,0.01,0,0.01,0.01h0c0.02,0.01,0.04,0.03,0.06,0.04l0,0L12.53,17.6z"/>
<path class="st4" d="M12.53,17.11l0,0.49c-0.02-0.01-0.03-0.01-0.05-0.02c-1-0.44-2.09-0.7-3.18-0.75
	c-0.52-0.02-1.05-0.01-1.58,0.05c0.11-0.3,0.21-0.61,0.31-0.91c0.01-0.02,0.01-0.04,0.02-0.06c0-0.01,0.01-0.01,0.01-0.02
	c0.01-0.02,0.01-0.04,0.02-0.06c0.14-0.42,0.61-0.38,0.78-0.35c0.03,0.01,0.05,0.01,0.06,0.01c0,0,0,0,0,0
	c0.19,0.04,0.38,0.09,0.56,0.14c0.29,0.08,0.58,0.17,0.86,0.27c0.08,0.03,0.16,0.06,0.25,0.09c0.03,0.01,0.07,0.03,0.1,0.04
	c0.01,0.01,0.02,0.01,0.03,0.01c0,0,0.01,0,0.02,0.01c0.12,0.05,0.25,0.11,0.37,0.17c0.4,0.2,0.79,0.43,1.16,0.69
	c0.06,0.05,0.13,0.09,0.19,0.14c0,0,0.01,0,0.01,0.01h0C12.48,17.08,12.5,17.09,12.53,17.11L12.53,17.11z"/>
<path class="st2" d="M25.46,17.2c-0.24-0.69-0.48-1.38-0.72-2.07c-0.16-0.47-0.65-0.48-0.88-0.46c-0.01,0-0.02,0-0.02,0
	c-0.01,0-0.02,0-0.03,0c-0.01,0-0.03,0-0.05,0.01c-0.01,0-0.01,0-0.01,0l0,0c-0.49,0.08-0.98,0.21-1.45,0.36
	c-0.55,0.17-1.09,0.39-1.61,0.66c-0.39,0.2-0.76,0.43-1.11,0.69c-0.12,0.09-0.24,0.18-0.35,0.28c0,0-0.01,0.01-0.01,0.01
	c-0.12,0.12-0.1,0.28-0.1,0.44l0,1.04c0,0.25,0.3,0.45,0.52,0.3c0.08-0.05,0.16-0.1,0.24-0.14c0.03-0.02,0.06-0.03,0.09-0.05
	c0.06-0.03,0.12-0.06,0.18-0.09c0.03-0.01,0.07-0.03,0.1-0.04c0,0,0,0,0,0c0.03-0.01,0.05-0.02,0.08-0.03
	c0.2-0.08,0.41-0.15,0.61-0.22c0.26-0.08,0.53-0.15,0.8-0.21c0.32-0.07,0.6-0.12,0.89-0.15c0.54-0.05,1.09-0.05,1.63-0.01
	c0.11,0.01,0.22,0.02,0.34,0.03c0.02,0,0.07,0.01,0.1,0.01c0.03,0,0.07,0.01,0.1,0.01c0.08,0.01,0.16,0.02,0.23,0.04
	C25.28,17.68,25.55,17.47,25.46,17.2z M23.03,16.82c-1.09,0.05-2.18,0.31-3.18,0.75c-0.02,0.01-0.03,0.01-0.05,0.02l0-0.49l0,0
	c0.02-0.01,0.04-0.03,0.06-0.04l0,0c0,0,0,0,0.01-0.01c0.06-0.05,0.12-0.09,0.19-0.14c0.37-0.26,0.76-0.49,1.16-0.69
	c0.1-0.05,0.2-0.1,0.3-0.14c0.02-0.01,0.05-0.02,0.07-0.03c0.01,0,0.01-0.01,0.02-0.01c0.01,0,0.02-0.01,0.03-0.01
	c0.03-0.01,0.07-0.03,0.1-0.04c0.08-0.03,0.16-0.06,0.25-0.09c0.28-0.1,0.57-0.19,0.86-0.28c0.19-0.05,0.37-0.1,0.56-0.14
	c0,0,0,0,0,0c0,0,0.02-0.01,0.06-0.01c0.16-0.03,0.63-0.07,0.78,0.35c0.01,0.02,0.01,0.04,0.02,0.06c0,0.01,0.01,0.01,0.01,0.02
	c0.01,0.02,0.01,0.04,0.02,0.06c0.1,0.3,0.21,0.61,0.32,0.91c-0.48-0.06-0.96-0.07-1.43-0.05C23.12,16.81,23.08,16.81,23.03,16.82z"
	/>
<path class="st4" d="M24.61,16.86c-0.52-0.06-1.06-0.07-1.58-0.05c-1.09,0.05-2.18,0.31-3.18,0.75c-0.02,0.01-0.03,0.01-0.05,0.02
	l0-0.49l0,0c0.02-0.01,0.04-0.03,0.06-0.04l0,0c0,0,0,0,0.01-0.01c0.06-0.05,0.12-0.09,0.19-0.14c0.37-0.26,0.76-0.49,1.16-0.69
	c0.12-0.06,0.25-0.12,0.37-0.17c0.01,0,0.01-0.01,0.02-0.01c0.01,0,0.02-0.01,0.03-0.01c0.03-0.01,0.07-0.03,0.1-0.04
	c0.08-0.03,0.16-0.06,0.25-0.09c0.28-0.1,0.57-0.19,0.86-0.28c0.19-0.05,0.37-0.1,0.56-0.14c0,0,0,0,0,0c0,0,0.02-0.01,0.06-0.01
	c0.16-0.03,0.63-0.07,0.78,0.35c0.01,0.02,0.01,0.04,0.02,0.06c0,0.01,0.01,0.01,0.01,0.02c0.01,0.02,0.01,0.04,0.02,0.06
	C24.4,16.26,24.5,16.56,24.61,16.86z"/>
<path class="st5" d="M20.58,20.86c-0.07,0-0.13,0-0.2,0.01c-0.02,0-0.03,0-0.05,0c-0.06,0-0.13,0.01-0.19,0.01
	c-0.01,0-0.02,0-0.04,0c-0.03,0-0.06,0.01-0.09,0.01c0.23,0.19,0.38,0.48,0.38,0.81c0,0.58-0.47,1.04-1.04,1.04
	c-0.3,0-0.57-0.13-0.76-0.33l0,1.73c0,1.25,1.02,2.27,2.27,2.27l3.23,0c0.04-0.02,0.09-0.04,0.13-0.06c0,0,0,0,0,0
	c0.02-0.05,0.04-0.11,0.06-0.17c0-0.01,0.01-0.03,0.02-0.05c0.01-0.04,0.03-0.08,0.04-0.12c0.01-0.02,0.01-0.04,0.02-0.06
	c0.01-0.04,0.02-0.08,0.03-0.12c0-0.02,0.01-0.03,0.01-0.05c0.01-0.06,0.03-0.11,0.04-0.17c0,0,0,0,0-0.01
	c0.01-0.06,0.02-0.12,0.03-0.18c0-0.02,0-0.04,0.01-0.05c0.01-0.04,0.01-0.08,0.02-0.13c0-0.02,0-0.04,0.01-0.06
	c0-0.04,0.01-0.09,0.01-0.13c0-0.02,0-0.04,0-0.06c0-0.06,0-0.12,0-0.19C24.54,22.63,22.77,20.86,20.58,20.86z M21.4,23.36
	c-0.34,0-0.61-0.27-0.61-0.61c0-0.34,0.27-0.61,0.61-0.61c0.34,0,0.61,0.27,0.61,0.61C22.01,23.09,21.74,23.36,21.4,23.36z"/>
<path class="st5" d="M8.04,20.87c-0.07,0-0.13,0-0.2,0.01c-0.02,0-0.03,0-0.05,0c-0.06,0-0.13,0.01-0.19,0.01c-0.01,0-0.02,0-0.03,0
	c-0.03,0-0.06,0.01-0.09,0.01c0.23,0.19,0.38,0.48,0.39,0.81c0,0.58-0.47,1.04-1.04,1.04c-0.27,0-0.51-0.1-0.7-0.27l0,1.66
	c0,1.25,1.02,2.27,2.27,2.27l3.16,0c0.04-0.02,0.09-0.04,0.13-0.06l0,0c0.02-0.05,0.05-0.11,0.07-0.17c0-0.01,0.01-0.03,0.02-0.05
	c0.01-0.04,0.03-0.08,0.04-0.12c0-0.02,0.01-0.04,0.02-0.06c0.01-0.04,0.02-0.08,0.03-0.12c0-0.02,0.01-0.03,0.01-0.05
	c0.01-0.06,0.03-0.11,0.04-0.17c0,0,0,0,0-0.01c0.01-0.06,0.02-0.12,0.03-0.18c0-0.02,0-0.04,0.01-0.05
	c0.01-0.04,0.01-0.08,0.02-0.13c0-0.02,0-0.04,0.01-0.06c0-0.04,0.01-0.09,0.01-0.13c0-0.02,0-0.04,0-0.06c0-0.06,0-0.12,0-0.19
	C12,22.64,10.23,20.87,8.04,20.87z M8.86,23.37c-0.34,0-0.61-0.27-0.61-0.61c0-0.34,0.27-0.61,0.61-0.61c0.34,0,0.61,0.27,0.61,0.61
	C9.47,23.1,9.2,23.37,8.86,23.37z"/>
<path class="st1" d="M5.86,20.51c-0.02,0.02-0.03,0.05-0.05,0.07c0.02,0.02,0.04,0.05,0.06,0.07c-0.03,0-0.06-0.01-0.09-0.02
	c-0.14,0.21-0.25,0.44-0.32,0.69c-0.05,0.14-0.08,0.28-0.11,0.43c0.01,0.01,0.03,0.02,0.04,0.03c0.12-0.41,0.29-0.79,0.52-1.14
	C5.89,20.59,5.87,20.55,5.86,20.51z M27.25,24.85C27.25,24.85,27.25,24.85,27.25,24.85L27.25,24.85c0,0,0.01-0.01,0.01-0.01
	C27.25,24.84,27.25,24.85,27.25,24.85z M27.3,22.64c-0.01,0-0.01,0.01-0.02,0.01c0,0-0.01,0-0.01,0c0.01,0.12,0.02,0.25,0.02,0.38
	c0,0.09,0,0.18-0.01,0.27c0.02,0,0.04-0.01,0.06-0.02l0-0.66C27.32,22.63,27.31,22.64,27.3,22.64z"/>
<path class="st6" d="M30.12,20.66c0,0-0.02,0.1-0.02,0.12c-0.01,0.06-0.03,0.12-0.05,0.18c0,0.01-0.01,0.02-0.01,0.03
	c-0.01,0.02-0.02,0.04-0.03,0.06c-0.02,0.03-0.03,0.06-0.05,0.09c-0.01,0.02-0.02,0.04-0.03,0.06c-0.02,0.02-0.03,0.05-0.05,0.07
	c0,0-0.01,0.01-0.01,0.02c-0.05,0.06-0.1,0.11-0.15,0.16c-0.02,0.02-0.05,0.04-0.07,0.07c0,0-0.02,0.02-0.04,0.03l-0.01,0.01
	c0,0,0,0,0,0c0,0,0,0,0,0c-0.05,0.04-0.1,0.08-0.16,0.12c-0.09,0.07-0.17,0.15-0.25,0.24c-0.33,0.36-0.59,0.78-0.81,1.21
	c-0.2,0.39-0.38,0.79-0.57,1.18c-0.08,0.15-0.16,0.3-0.25,0.45c-0.01,0.01-0.02,0.02-0.03,0.04c-0.01,0.01-0.03,0.04-0.04,0.05
	c-0.02,0.02-0.03,0.03-0.05,0.05c0,0,0,0-0.01,0c0,0,0,0-0.01,0c-0.04,0.01-0.07,0.02-0.11,0.03c0,0,0,0,0,0
	c-0.01,0-0.04,0.01-0.06,0.01c0.01-0.03,0.01-0.05,0.02-0.08c0,0,0-0.01,0-0.01c0,0,0,0,0,0c0.02-0.08,0.04-0.17,0.05-0.26
	c0-0.03,0.01-0.06,0.01-0.09c0.01-0.12,0.02-0.24,0.02-0.36l0-0.85c0.04-0.01,0.08-0.02,0.12-0.04c0.03-0.01,0.07-0.03,0.1-0.04
	c0,0,0.01,0,0.01,0c0.01-0.01,0.02-0.01,0.04-0.02c0,0,0,0,0.01,0c0.37-0.17,0.61-0.51,0.71-0.9c0.1-0.4,0.11-0.91-0.11-1.27
	c0.15-0.08,0.29-0.14,0.42-0.19c0.52-0.21,0.89-0.17,0.92-0.26c0.01-0.01,0-0.03-0.02-0.06c0-0.01-0.01-0.01-0.02-0.02
	c-0.01-0.01-0.02-0.01-0.03-0.02c-0.01-0.01-0.02-0.01-0.03-0.02c-0.09-0.05-0.22-0.09-0.41-0.11c-0.02,0-0.03,0-0.05,0
	c0,0,0,0-0.01,0c-0.02,0-0.03,0-0.05,0c-0.13,0-0.27,0.01-0.42,0.03c-0.37,0.06-0.77,0.22-1.19,0.46c0.01-0.04,0.02-0.07,0.03-0.11
	c0.05-0.18,0.09-0.36,0.14-0.54c0.01-0.04,0.02-0.07,0.03-0.11c0.01-0.03,0.01-0.06,0.02-0.09c0.04-0.16,0.07-0.32,0.1-0.48
	c0.01-0.01,0.03-0.01,0.04-0.02c0.02-0.01,0.03-0.01,0.05-0.02c0.02-0.01,0.07-0.03,0.09-0.04c0.09-0.04,0.19-0.07,0.29-0.1
	c0.1-0.03,0.21-0.06,0.31-0.08c0.04-0.01,0.08-0.01,0.12-0.02c0.01,0,0.05-0.01,0.06-0.01c0.04,0,0.08-0.01,0.12-0.01
	c0.12-0.01,0.24,0,0.36,0.01c0,0,0,0,0,0c0,0,0.01,0,0.01,0c0.03,0,0.06,0.01,0.09,0.02c0.07,0.02,0.14,0.04,0.21,0.06
	c0.01,0,0.04,0.01,0.05,0.02c0.02,0.01,0.04,0.02,0.06,0.03c0.05,0.02,0.1,0.05,0.15,0.08c0,0,0.01,0,0.01,0.01
	c0.01,0,0.01,0.01,0.02,0.01c0.04,0.03,0.07,0.07,0.1,0.1c0.02,0.02,0.04,0.04,0.05,0.06c0,0,0.05,0.07,0.06,0.09
	c0.05,0.07,0.09,0.14,0.12,0.22c0,0,0.03,0.09,0.04,0.11c0.02,0.05,0.03,0.09,0.04,0.14c0.01,0.05,0.02,0.1,0.03,0.14
	c0,0,0,0.01,0,0.01c0,0.03,0,0.06,0.01,0.08C30.13,20.49,30.13,20.58,30.12,20.66z"/>
<path class="st6" d="M5.37,24.84c-0.01,0.03-0.02,0.06-0.02,0.09c-0.03,0-0.07-0.01-0.08-0.01c0,0,0,0,0,0
	c-0.04-0.01-0.08-0.01-0.11-0.03c0,0,0,0-0.01,0c0,0-0.01,0-0.01,0c-0.02-0.02-0.04-0.03-0.05-0.05c-0.01-0.01-0.03-0.04-0.04-0.05
	c-0.01-0.01-0.02-0.02-0.03-0.04c0,0-0.01-0.01-0.01-0.01c-0.1-0.14-0.18-0.28-0.27-0.43c-0.22-0.38-0.41-0.78-0.64-1.16
	c-0.17-0.28-0.35-0.56-0.56-0.82c-0.1-0.13-0.21-0.25-0.33-0.36c-0.08-0.08-0.17-0.16-0.26-0.23c-0.05-0.04-0.11-0.08-0.17-0.12
	c0,0,0,0,0,0c0,0,0,0,0,0l-0.01-0.01c-0.02-0.01-0.04-0.03-0.04-0.03c-0.03-0.02-0.05-0.04-0.08-0.06c-0.06-0.05-0.11-0.1-0.16-0.15
	c-0.01-0.01-0.01-0.01-0.01-0.02c-0.02-0.02-0.04-0.05-0.06-0.07c-0.01-0.02-0.02-0.04-0.04-0.06c-0.02-0.03-0.04-0.06-0.06-0.09
	c-0.01-0.02-0.02-0.04-0.03-0.05C2.3,21.08,2.3,21.07,2.3,21.06c-0.02-0.06-0.04-0.12-0.06-0.17c-0.01-0.02-0.03-0.12-0.03-0.12
	c-0.01-0.09-0.02-0.17-0.02-0.26c0-0.03,0-0.06,0-0.08c0,0,0-0.01,0-0.01c0.01-0.05,0.02-0.1,0.03-0.15
	c0.01-0.05,0.02-0.09,0.04-0.14c0.01-0.02,0.04-0.1,0.04-0.11c0.03-0.08,0.07-0.15,0.12-0.22c0.01-0.02,0.06-0.09,0.06-0.09
	c0.02-0.02,0.03-0.04,0.05-0.06c0.03-0.04,0.07-0.07,0.1-0.1c0,0,0.01-0.01,0.02-0.01c0,0,0.01-0.01,0.01-0.01
	c0.05-0.03,0.1-0.06,0.15-0.09c0.02-0.01,0.04-0.02,0.06-0.03c0.01-0.01,0.05-0.02,0.06-0.02c0.07-0.03,0.14-0.05,0.21-0.07
	c0.03-0.01,0.06-0.01,0.09-0.02c0.01,0,0.01,0,0.02,0c0,0,0,0,0,0c0.12-0.02,0.25-0.02,0.37-0.02c0.04,0,0.08,0,0.12,0
	c0.01,0,0.05,0,0.06,0.01c0.04,0,0.08,0.01,0.13,0.02c0.11,0.02,0.22,0.04,0.33,0.07c0.1,0.03,0.21,0.06,0.3,0.09
	c0.02,0.01,0.07,0.02,0.09,0.03c0.02,0.01,0.03,0.01,0.05,0.02c0.01,0.01,0.03,0.01,0.04,0.02c0.04,0.16,0.08,0.32,0.12,0.48
	c0.02,0.07,0.04,0.13,0.06,0.2c0.06,0.21,0.12,0.43,0.19,0.64c-0.02-0.01-0.05-0.03-0.07-0.04C5,20.77,4.95,20.75,4.91,20.73
	c-0.36-0.17-0.72-0.28-1.04-0.32c-0.54-0.08-0.91,0.05-1.03,0.15c-0.04,0.03-0.05,0.06-0.04,0.07c0.03,0.09,0.41,0.04,0.97,0.23
	c0.12,0.04,0.25,0.09,0.39,0.15c0.02,0.01,0.04,0.02,0.05,0.02c-0.22,0.37-0.19,0.88-0.07,1.28c0.12,0.39,0.37,0.71,0.77,0.87
	c0,0,0,0,0.01,0c0.11,0.05,0.23,0.08,0.35,0.11c-0.01-0.09-0.01-0.17-0.02-0.26c0-0.13,0-0.25,0-0.38c0,0-0.01,0-0.01,0
	c-0.01,0-0.01-0.01-0.02-0.01c-0.06-0.03-0.13-0.06-0.18-0.09c0,0,0,0,0,0C5.01,22.54,5,22.54,4.99,22.53
	c-0.03-0.02-0.05-0.04-0.07-0.07c-0.01,0-0.03-0.04-0.03-0.04c0-0.01-0.01-0.01-0.01-0.02c-0.02-0.03-0.04-0.06-0.06-0.09
	c0,0,0,0,0-0.01c-0.01-0.02-0.01-0.04-0.02-0.05c-0.02-0.05-0.03-0.1-0.05-0.15c-0.04-0.16-0.07-0.28-0.05-0.47
	c0-0.01,0-0.01,0-0.01c0-0.02,0-0.03,0.01-0.05c0.01-0.03,0.01-0.06,0.02-0.08c0.01-0.02,0.01-0.05,0.02-0.07c0,0,0-0.01,0.01-0.01
	c0.01-0.02,0.02-0.04,0.03-0.06c0.09,0.05,0.17,0.11,0.26,0.17c0.11,0.07,0.21,0.15,0.32,0.23c-0.02,0.09-0.03,0.17-0.04,0.26
	C5.3,22.1,5.3,22.19,5.3,22.29l0,1.87c0,0.03,0,0.05,0,0.08l0,0C5.3,24.45,5.33,24.65,5.37,24.84z"/>
<path class="st7" d="M20.32,27.72c-0.37,0-0.74-0.09-1.06-0.27c-0.72-0.4-1.87-1.23-1.85-2.41l0-2.38c0-0.29-0.11-0.57-0.3-0.78
	c-0.35-0.37-0.96-0.79-1.61-0.1c-0.22,0.24-0.34,0.56-0.34,0.88l0,2.28c0,0,0,0.01,0,0.03c-0.02,0.14-0.1,0.68-0.44,1.26
	c0,0,0,0,0,0c-0.49,0.82-1.5,1.7-3.6,1.5c0.02-0.04,0.03-0.33,0.04-0.48l-0.04,0c-0.04,0.1-0.09,0.27-0.09,0.49
	c0,0.13,0.02,0.28,0.07,0.44c0.01,0.02,0.02,0.05,0.02,0.07c0.03,0.07,0.06,0.15,0.11,0.22c0.01,0.02,0.03,0.05,0.05,0.07
	c0.04,0.06,0.09,0.13,0.14,0.19c0.02,0.02,0.05,0.05,0.07,0.08c0.41,0.43,1.16,0.85,2.5,1.15c0,0,0.83,1.56,2.34,2.13l0,0
	c1.63,0.18,2.77-0.91,2.83-0.98l0.06-0.06l0.07-0.03c0.09-0.03,0.19-0.07,0.28-0.1c0,0,0.01,0,0.01,0c1.23-0.6,3.23-2.73,3.68-3.21
	L20.32,27.72z M17.93,29.51c-0.31,0.19-0.67,0.32-1.03,0.38c-0.84,0.15-1.79,0.08-2.53-0.37c-0.18-0.11-0.25-0.34-0.14-0.53
	c0.1-0.18,0.35-0.25,0.53-0.14c0.06,0.04,0.13,0.08,0.2,0.11c0.02,0.01,0.03,0.01,0.05,0.02c0,0,0,0,0,0
	c0.03,0.01,0.06,0.02,0.09,0.03c0.17,0.06,0.34,0.1,0.51,0.13c0.01,0,0.09,0.01,0.11,0.02c0.05,0,0.09,0.01,0.14,0.01
	c0.1,0.01,0.19,0.01,0.29,0.01c0.09,0,0.19,0,0.28-0.01c0.05,0,0.1-0.01,0.15-0.01c0.01,0,0.01,0,0.02,0c0.01,0,0.01,0,0.03,0
	c0.17-0.03,0.34-0.07,0.51-0.12c0.04-0.01,0.08-0.03,0.12-0.04c0.01,0,0.02-0.01,0.03-0.01c0,0,0.01,0,0.01-0.01
	c0.06-0.03,0.12-0.06,0.17-0.09c0.03-0.02,0.06-0.03,0.09-0.05c0.01-0.01,0.04-0.03,0.05-0.04c0.02-0.02,0.05-0.04,0.07-0.07
	c0,0,0-0.01,0.01-0.01c0.02-0.2,0.18-0.35,0.38-0.35c0.21,0,0.39,0.18,0.39,0.39C18.45,29.08,18.2,29.33,17.93,29.51z"/>
<path class="st8" d="M24.95,27.15c-0.08,0.1-0.17,0.21-0.26,0.31c-0.03,0.04-0.06,0.07-0.09,0.11c-0.04,0.05-0.08,0.09-0.13,0.14
	l-4.15,0c-0.37,0-0.74-0.09-1.06-0.27c-0.72-0.4-1.87-1.23-1.85-2.41l0-2.38c0-0.29-0.11-0.57-0.3-0.78
	c-0.35-0.37-0.96-0.79-1.61-0.1c-0.22,0.24-0.34,0.56-0.34,0.88l0,2.28c0,0,0,0.01,0,0.03c-0.02,0.14-0.11,0.68-0.44,1.26
	c0,0,0,0,0,0c-0.5,0.86-1.54,1.79-3.69,1.5c0,0.13,0.02,0.28,0.07,0.44c0.01,0.02,0.02,0.05,0.02,0.07
	c0.03,0.07,0.06,0.15,0.11,0.22c0.01,0.02,0.03,0.05,0.05,0.07c0.04,0.06,0.09,0.13,0.14,0.19c0.02,0.02,0.04,0.05,0.07,0.08
	c0.41,0.43,1.16,0.85,2.5,1.15c0,0,0.83,1.56,2.34,2.13c-0.65-0.07-1.39-0.35-2.17-0.99l-0.07-0.06l-0.09-0.02
	c-0.04-0.01-3.55-0.67-6.33-3.86c0.24,0.06,0.48,0.09,0.74,0.09l3.36,0c1.71,0,3.1-1.39,3.1-3.1l0-1.87c0-0.14-0.01-0.28-0.03-0.42
	c0.26-0.43,0.82-1.13,1.44-1.15c0.59-0.02,1.14,0.58,1.53,1.17c-0.02,0.13-0.03,0.27-0.03,0.41l0,1.87c0,1.71,1.39,3.1,3.1,3.1
	l3.36,0C24.49,27.24,24.73,27.21,24.95,27.15z"/>
<path class="st7" d="M25.03,17.63c-0.08-0.02-0.16-0.03-0.23-0.04c-0.03,0-0.07-0.01-0.1-0.01c-0.03,0-0.08-0.01-0.1-0.01
	c-0.11-0.01-0.22-0.02-0.34-0.03c-0.54-0.04-1.09-0.04-1.63,0.01c-0.29,0.03-0.57,0.08-0.89,0.15c-0.27,0.06-0.53,0.13-0.8,0.21
	c-0.21,0.06-0.41,0.13-0.61,0.22c-0.03,0.01-0.05,0.02-0.08,0.03c0,0,0,0,0,0c-0.03,0.01-0.07,0.03-0.1,0.04
	c-0.06,0.03-0.12,0.06-0.18,0.09c-0.03,0.02-0.06,0.03-0.09,0.05c-0.08,0.04-0.17,0.09-0.24,0.14c-0.22,0.15-0.52-0.05-0.52-0.3
	l0-1.04c0-0.15-0.02-0.32,0.1-0.44c0,0,0.01-0.01,0.01-0.01c0.11-0.1,0.23-0.19,0.35-0.28c0.35-0.26,0.73-0.49,1.11-0.69l2.24-1.36
	c-0.55-0.39-0.36-1.44-0.36-1.44c-0.18,0.09-0.36,0.17-0.55,0.24c-0.37,0.15-0.74,0.28-1.12,0.4c-0.76,0.23-1.54,0.39-2.33,0.47
	c-1.58,0.15-3.21-0.05-4.69-0.66c-0.67-0.27-1.31-0.62-1.9-1.03c0,0,0,0,0,0c0,0,0,0,0,0c-0.13-0.06-2.15-1.04-1.5,1.03
	c0,0-1.35,0.38-1.03,1.55c0.19,0.05,0.39,0.11,0.57,0.17c0.97,0.3,1.9,0.74,2.72,1.35c0.12,0.09,0.24,0.18,0.35,0.28
	c0,0,0.01,0.01,0.01,0.01c0.12,0.12,0.1,0.28,0.1,0.44l0,1.04c0,0.25-0.3,0.45-0.52,0.3c-0.08-0.05-0.16-0.1-0.24-0.14
	c-0.03-0.02-0.06-0.03-0.09-0.05c-0.06-0.03-0.12-0.06-0.18-0.09c-0.03-0.01-0.07-0.03-0.1-0.04c0,0,0,0,0,0
	c-0.03-0.01-0.05-0.02-0.08-0.03c-0.2-0.08-0.41-0.15-0.61-0.21c-0.26-0.08-0.53-0.15-0.8-0.21c-0.32-0.07-0.6-0.12-0.89-0.15
	c-0.41-0.04-0.82-0.05-1.23-0.03c-0.05,0.03-1.1,0.85-0.08,1.66l3.36,0c1.2,0,2.25,0.69,2.76,1.69c0.39-0.47,0.98-0.97,1.72-1
	c0.65-0.03,1.28,0.31,1.86,1.01c0.51-1.01,1.56-1.71,2.77-1.71l3.36,0c0.23,0,0.45,0.02,0.66,0.07l0,0
	C25.91,18.75,25.03,17.63,25.03,17.63z"/>
<path class="st6" d="M26.97,18.88L26.97,18.88c-0.02,0.09-0.04,0.18-0.06,0.27c-0.06,0.35-0.14,0.7-0.23,1.05
	c-0.01,0.04-0.02,0.08-0.03,0.13c-0.44-0.54-1.05-0.94-1.76-1.09c1.01-0.49,0.14-1.61,0.14-1.61c0.24,0.05,0.52-0.16,0.43-0.43
	c-0.24-0.69-0.48-1.38-0.72-2.07c-0.16-0.47-0.65-0.48-0.88-0.46c-0.01,0-0.02,0-0.02,0c-0.01,0-0.02,0-0.03,0
	c-0.01,0-0.03,0-0.05,0.01c-0.01,0-0.01,0-0.01,0l0,0c-0.49,0.08-0.98,0.21-1.45,0.36c-0.55,0.17-1.09,0.39-1.61,0.66l2.24-1.36
	c-0.55-0.39-0.36-1.44-0.36-1.44c0.08-0.04,0.15-0.08,0.23-0.12c0.21,0.33,0.46,0.62,0.76,0.87c0.19,0.17,0.41,0.31,0.63,0.43
	c0.11,0.06,0.23,0.11,0.35,0.16c0.06,0.02,0.12,0.05,0.18,0.06l0.1,0.03c0.02,0,0.04,0.01,0.06,0.01c0.4,0.19,0.75,0.45,1.04,0.79
	c0.29,0.34,0.52,0.75,0.68,1.18c0.16,0.44,0.27,0.9,0.32,1.37c0.03,0.24,0.04,0.47,0.05,0.71C26.97,18.57,26.97,18.73,26.97,18.88z"
	/>
<path class="st8" d="M11.98,12.33c-0.13-0.06-2.15-1.04-1.5,1.03c0,0-1.35,0.38-1.03,1.55c-0.29-0.08-0.58-0.14-0.88-0.19l0,0
	c0,0-0.01,0-0.01,0c-0.01,0-0.03,0-0.05-0.01c-0.01,0-0.02,0-0.03,0c-0.01,0-0.01,0-0.02,0c-0.23-0.02-0.72-0.01-0.88,0.46
	c-0.24,0.69-0.48,1.38-0.72,2.07c-0.09,0.27,0.19,0.48,0.43,0.43c0.08-0.02,0.16-0.03,0.23-0.04c0.03,0,0.07-0.01,0.1-0.01
	c0.03,0,0.08-0.01,0.1-0.01c0.11-0.01,0.22-0.02,0.34-0.03c0.14-0.01,0.27-0.02,0.41-0.02c-0.05,0.03-1.1,0.85-0.08,1.66
	c-0.85,0-1.62,0.34-2.18,0.9c-0.13,0.13-0.25,0.27-0.36,0.42c-0.03-0.11-0.07-0.21-0.1-0.32c-0.1-0.34-0.2-0.69-0.27-1.04
	c-0.01-0.06-0.02-0.11-0.04-0.17c-0.01-0.03-0.02-0.06-0.05-0.09l0.03-0.25c0.09-0.67,0.12-1.72,0.31-2.38
	c0.18-0.66,0.41-1.31,0.72-1.91c0.15-0.3,0.32-0.59,0.52-0.84c0.2-0.26,0.42-0.48,0.67-0.64c0.25-0.16,0.53-0.25,0.82-0.26
	c0.26-0.01,0.54,0.05,0.8,0.15c0.01,0.01,0.02,0.01,0.03,0.02l0-0.01c0.01,0,0.03,0.01,0.04,0.02l0.78,0.32L9.8,12.32
	c-0.03-0.07-0.06-0.17-0.09-0.25c-0.02-0.09-0.04-0.18-0.06-0.27c-0.02-0.18-0.02-0.35,0.02-0.48c0.04-0.13,0.11-0.21,0.22-0.28
	c0.11-0.06,0.27-0.09,0.43-0.1c0.13,0.13,0.25,0.25,0.38,0.37c0.21,0.2,0.43,0.38,0.65,0.56c0.06,0.05,0.11,0.09,0.17,0.13
	c0.07,0.06,0.14,0.11,0.22,0.16C11.84,12.22,11.91,12.27,11.98,12.33z"/>
<line class="st9" x1="16.33" y1="32.09" x2="16.33" y2="32.09"/>
<path class="st8" d="M14.56,18.37c0.51-0.27,0.29-1.87,0.29-1.87c-0.18-0.63-0.77-0.5-0.8,0.11c-0.02,0.61-0.29,0.69-0.6,1.01
	c0,0.11,0,0.23,0,0.34C13.64,18.27,14.2,18.56,14.56,18.37z"/>
<path class="st6" d="M18.1,16.56c-0.02-0.61-0.62-0.74-0.8-0.11c0,0-0.22,1.6,0.29,1.87c0.36,0.19,0.92-0.1,1.11-0.4
	c0-0.11,0-0.23,0-0.34C18.39,17.25,18.12,17.17,18.1,16.56z"/>
<path class="st2" d="M26.44,14.7c-0.21-0.24-0.45-0.46-0.71-0.64l1.35,1.65C26.92,15.35,26.71,15,26.44,14.7z M29.46,18.55
	C29.46,18.55,29.46,18.55,29.46,18.55l-0.07-0.03c0,0-0.01,0.01-0.01,0.01c-0.04,0.07-0.08,0.13-0.13,0.19l0.33-0.12l0.05-0.02
	C29.57,18.57,29.51,18.56,29.46,18.55z"/>
<path class="st10" d="M25.73,9.47c0,0-0.01,0.44-0.39,0.96l-0.06-0.03c-0.3,0.42-0.71,0.72-1.14,0.98
	c-0.14,0.08-0.27,0.16-0.42,0.23c-0.08,0.04-0.17,0.08-0.25,0.12c-0.13,0.06-0.25,0.11-0.38,0.16c-0.08,0.03-0.16,0.06-0.24,0.09
	c-0.02,0.01-0.04,0.01-0.07,0.02l0,0.01l-0.04,0.02c-0.15,0.08-0.32,0.17-0.49,0.25c-0.17,0.08-0.34,0.15-0.51,0.22
	c-0.35,0.14-0.7,0.27-1.06,0.38c-0.72,0.22-1.45,0.37-2.19,0.45c-0.74,0.08-1.49,0.08-2.23-0.01c-0.47-0.06-0.93-0.15-1.39-0.28
	C14.89,13.04,21.84,13.5,25.73,9.47z"/>
<path class="st11" d="M4.24,18.1c-0.14,0-0.28,0.02-0.42,0.04c-0.22,0.03-0.44,0.08-0.65,0.13c-0.11,0.03-0.22,0.06-0.34,0.1
	c-0.72-1.4-1.3-3.29-1.38-4.85c-0.01-0.2-0.02-0.4-0.01-0.59c0.35,2.98,1.79,4.52,1.84,4.58C1.4,13.76,2.87,10.96,3.7,9.82
	C3.49,10.4,3.32,11,3.2,11.61c-0.16,0.78-0.24,1.58-0.2,2.38c0.03,0.8,0.18,1.61,0.46,2.38c0.14,0.38,0.43,1.12,0.64,1.48
	C4.14,17.93,4.19,18.02,4.24,18.1z"/>
<path class="st10" d="M30.96,14.19c-0.04,0.4-0.1,0.81-0.2,1.2c-0.04,0.2-0.11,0.39-0.16,0.59l-0.1,0.29
	c-0.03,0.1-0.07,0.19-0.11,0.29c-0.26,0.68-0.61,1.34-1.01,1.96c0.8-1.38,0.96-5.19,0.96-5.19c-0.6,0.67-1.63,0.99-1.7,1.01
	c0.89-0.43,0.59-3.07,0.59-3.07l-1.46,0.25l-0.02-0.59c0.18-1.12-0.8-3.71-0.8-3.71c-0.6,0.38-0.98,1.48-0.98,1.48
	c-1.78-6.05-8.8-5.68-9.24-5.65c0,0,0,0,0,0c-0.93-0.16-1.87-0.21-2.78-0.27c-0.23-0.01-0.46-0.04-0.68-0.05c-0.01,0-0.01,0-0.02,0
	c-1.27-0.11-2.48-0.31-3.69-0.73c-0.45-0.16-0.9-0.32-1.35-0.48L8.18,1.51c0.02,0,0.04,0.01,0.06,0.01c0.17,0.03,0.34,0.05,0.5,0.07
	c1.21,0.14,2.43,0.14,3.63,0.09c0.6-0.03,1.2-0.06,1.81-0.12c0.3-0.02,0.6-0.06,0.9-0.09l0.44-0.05c0.14-0.01,0.29-0.03,0.44-0.04
	c1.17-0.07,2.35-0.03,3.51,0.14c1.16,0.16,2.3,0.45,3.37,0.91c0.53,0.23,1.05,0.5,1.53,0.81c0.48,0.31,0.94,0.67,1.35,1.07
	c0.41,0.4,0.79,0.84,1.12,1.31c0.33,0.47,0.61,0.98,0.84,1.5c0.47,1.06,0.75,2.2,0.91,3.35l0.06,0.48l0.43-0.2
	c0.17-0.08,0.3-0.16,0.44-0.25c0.14-0.09,0.27-0.18,0.4-0.29c0.01,0,0.01-0.01,0.02-0.01c-0.01,0.11-0.02,0.21-0.03,0.32
	c-0.04,0.42-0.09,0.83-0.16,1.24c-0.07,0.41-0.15,0.82-0.27,1.22c-0.12,0.4-0.26,0.8-0.53,1.13c0.31-0.29,0.52-0.68,0.7-1.07
	c0.18-0.39,0.32-0.79,0.45-1.2c0.13-0.41,0.24-0.82,0.35-1.24c0.01-0.06,0.03-0.12,0.04-0.18c0.02,0.05,0.04,0.1,0.05,0.15
	c0.13,0.38,0.24,0.78,0.31,1.18C31,12.56,31.04,13.38,30.96,14.19z"/>
<line class="st9" x1="24.47" y1="27.71" x2="24.47" y2="27.71"/>
<path class="st7" d="M28.97,19.79c-0.5-0.17-1.06,0.06-1.45,0.28c-0.02,0.01-0.05,0.03-0.07,0.04c-0.05,0.22-0.11,0.43-0.17,0.65
	c0.02-0.01,0.05-0.03,0.07-0.04c0.39-0.22,0.77-0.36,1.11-0.42c0.65-0.12,1.05,0.1,1.04,0.19c0,0,0,0,0,0.01
	c-0.03,0.09-0.4,0.05-0.92,0.26c-0.13,0.05-0.27,0.11-0.42,0.19c0.22,0.37,0.21,0.88,0.11,1.27c-0.1,0.39-0.34,0.72-0.71,0.9
	c0,0,0,0-0.01,0c0,0.03,0.01,0.05,0.01,0.08c0.04,0.32,0.03,0.78-0.17,1.32c-0.04,0.12-0.09,0.22-0.13,0.31c0,0,0,0,0,0
	c0,0,0,0.01-0.01,0.01c0,0,0,0,0,0l0,0c0.04-0.01,0.07-0.02,0.11-0.03c0,0,0,0,0.01,0c0,0,0.01,0,0.01,0
	c0.02-0.02,0.03-0.03,0.05-0.05c0.01-0.01,0.03-0.04,0.04-0.05c0.01-0.01,0.02-0.02,0.03-0.04c0.09-0.14,0.17-0.29,0.25-0.45
	c0.19-0.39,0.37-0.79,0.57-1.18c0.23-0.43,0.48-0.85,0.81-1.21c0.08-0.08,0.16-0.16,0.25-0.24c0.05-0.04,0.1-0.08,0.15-0.12
	c0,0,0,0,0,0c0,0,0,0,0,0c0,0,0,0,0.01-0.01c0,0,0,0,0,0c0.01-0.01,0.03-0.03,0.04-0.03c0.02-0.02,0.05-0.04,0.07-0.07
	c0.05-0.05,0.1-0.1,0.15-0.16c0.01-0.01,0.01-0.01,0.01-0.02c0.02-0.02,0.03-0.05,0.05-0.07c0.01-0.02,0.02-0.04,0.04-0.06
	C29.81,20.66,29.56,19.98,28.97,19.79z M29.19,21.49c-0.35,0.26-0.56,0.62-0.59,0.66c0.01-0.04,0.09-0.35,0.07-0.6
	c-0.02-0.38-0.18-0.49-0.11-0.57c0.15-0.18,0.64-0.2,0.88-0.1C29.69,20.98,29.39,21.34,29.19,21.49z"/>
<path class="st7" d="M5.01,24.74c-0.02-0.05-0.05-0.11-0.07-0.17c-0.22-0.59-0.21-1.09-0.17-1.4c-0.01,0-0.02-0.01-0.03-0.01
	c-0.37-0.19-0.61-0.52-0.7-0.92c-0.09-0.38-0.1-0.86,0.1-1.21c0-0.01,0.01-0.02,0.01-0.03c-0.15-0.08-0.29-0.14-0.42-0.19
	c-0.48-0.19-0.83-0.17-0.91-0.24c-0.01-0.01-0.01-0.01-0.01-0.02c-0.04-0.08,0.37-0.32,1.04-0.2c0.32,0.05,0.68,0.18,1.05,0.38
	C4.96,20.75,5,20.78,5.05,20.8c0,0,0-0.01,0-0.01c-0.06-0.21-0.12-0.42-0.17-0.64c-0.39-0.23-0.99-0.49-1.52-0.32
	c-0.59,0.2-0.84,0.88-0.94,1.28c0.03,0.04,0.05,0.09,0.08,0.13c0,0,0,0,0,0c0,0,0.01,0.01,0.01,0.01c0.02,0.02,0.04,0.05,0.06,0.07
	c0.04,0.05,0.09,0.09,0.14,0.13c0.01,0.01,0.05,0.04,0.07,0.06c0.03,0.03,0.07,0.05,0.1,0.08c0.04,0.03,0.08,0.07,0.12,0.1
	c0.08,0.07,0.15,0.15,0.22,0.22c0.11,0.13,0.22,0.26,0.32,0.4c0.05,0.07,0.09,0.13,0.14,0.2c0.25,0.39,0.45,0.81,0.65,1.22
	c0.16,0.33,0.31,0.69,0.52,0.99c0.01,0.01,0.01,0.02,0.02,0.03c0.02,0.02,0.04,0.04,0.06,0.06c0.01,0.01,0.02,0.01,0.03,0.02
	c0,0,0,0,0,0c0,0,0,0,0,0c0.04,0.01,0.07,0.02,0.11,0.03c0,0,0,0,0,0C5.06,24.85,5.03,24.8,5.01,24.74z M3.14,21.54
	c-0.2-0.15-0.5-0.5-0.26-0.6c0.24-0.1,0.73-0.08,0.88,0.09c0.07,0.08-0.09,0.19-0.11,0.57c-0.01,0.25,0.06,0.56,0.07,0.6
	C3.71,22.16,3.49,21.81,3.14,21.54z"/>
<path class="st11" d="M7.63,6.66L7.56,6.7c0.53,1.32,1.28,2.55,2.23,3.63c-0.07,0.02-0.14,0.06-0.21,0.09
	c-0.13,0.07-0.25,0.17-0.35,0.29c-0.1,0.12-0.17,0.26-0.21,0.4c-0.07,0.23-0.07,0.44-0.06,0.65c-0.06-0.04-0.13-0.07-0.19-0.11
	c-0.29-0.18-0.58-0.37-0.87-0.58c-0.28-0.2-0.55-0.42-0.81-0.66c-0.26-0.23-0.5-0.49-0.73-0.76c0.18,0.3,0.38,0.6,0.6,0.88
	c0.22,0.28,0.46,0.55,0.71,0.8c0.19,0.2,0.39,0.39,0.59,0.57c-0.35,0.04-0.7,0.17-0.98,0.36c-0.34,0.22-0.62,0.5-0.85,0.8
	c-0.23,0.3-0.42,0.62-0.59,0.95c-0.33,0.66-0.57,1.35-0.77,2.04c-0.13,0.46-0.12,1.29-0.21,1.76c-0.08-0.1-0.28-0.58-0.35-0.69
	c-0.21-0.31-0.4-0.64-0.55-0.98c-0.31-0.69-0.51-1.44-0.6-2.2c-0.09-0.77-0.08-1.55,0.02-2.32c0.08-0.64,0.21-1.28,0.39-1.91
	C4,9.42,4.17,9.25,4.17,9.25c-0.83,3.8,0.24,6.03,0.24,6.03c0.6-3.99,2.43-3.66,2.43-3.66c-1.17-1.07-1.21-3.39-1.21-3.39
	c0.04,0.63,2.61,2.57,2.61,2.57C7.82,10.33,8.69,9.9,8.69,9.9c-1.68-1.64-1.4-4.65-1.4-4.65c1.67,2.83,3.73,5.31,4.6,6.31
	c-0.53-0.38-1.02-0.81-1.48-1.28C9.36,9.2,8.48,7.95,7.63,6.66z"/>
<path class="st10" d="M6.54,5.89C6.12,6.21,5.63,6.42,5.15,6.66C3.81,7.33,2.82,8.5,2.01,9.74c0.13-0.36,0.27-0.7,0.44-1.04
	c0.36-0.75,0.81-1.45,1.35-2.09c0.26-0.32,0.55-0.62,0.86-0.88C4.73,5.66,4.8,5.6,4.88,5.54L5,5.45l0.14-0.1
	c0.21-0.16,0.37-0.34,0.51-0.5c0.14-0.17,0.27-0.31,0.41-0.42l0.06-0.05c0.02-0.02,0.05-0.04,0.07-0.06
	c0.05-0.04,0.09-0.08,0.14-0.13C6.42,4.1,6.5,4,6.57,3.89c0.14-0.22,0.24-0.47,0.29-0.72c0.05-0.25,0.05-0.51,0.02-0.75
	C6.83,2.02,6.67,1.68,6.46,1.37c0.12,0.14,0.25,0.27,0.38,0.4C7.84,3.02,7.94,4.81,6.54,5.89z"/>
<path class="st12" d="M6.84,1.78C6.72,1.63,6.6,1.5,6.46,1.37"/>
<path class="st2" d="M24.38,11.7c0.04-0.03,0.08-0.07,0.11-0.11c-0.1,0.09-0.2,0.18-0.31,0.28C24.25,11.82,24.32,11.76,24.38,11.7z
	 M22.78,12l0.01,0.01c0.03-0.01,0.06-0.03,0.11-0.06c-0.02,0.01-0.03,0.02-0.05,0.02C22.83,11.98,22.8,11.99,22.78,12z M24.38,11.7
	c0.04-0.03,0.08-0.07,0.11-0.11c-0.1,0.09-0.2,0.18-0.31,0.28C24.25,11.82,24.32,11.76,24.38,11.7z M22.78,12l0.01,0.01
	c0.03-0.01,0.06-0.03,0.11-0.06c-0.02,0.01-0.03,0.02-0.05,0.02C22.83,11.98,22.8,11.99,22.78,12z"/>
<path class="st6" d="M24.47,27.71c-0.05,0.05-0.09,0.1-0.14,0.15c-0.02,0.02-0.05,0.05-0.07,0.07c-0.12,0.13-0.25,0.25-0.39,0.38
	c-0.05,0.04-0.09,0.09-0.14,0.13c-0.05,0.04-0.1,0.09-0.15,0.13c-0.05,0.04-0.1,0.09-0.15,0.13c-0.26,0.22-0.54,0.43-0.83,0.64
	c-0.04,0.03-0.09,0.06-0.14,0.09c-0.08,0.05-0.15,0.1-0.23,0.16c-0.06,0.04-0.12,0.08-0.18,0.11c-0.53,0.33-1.11,0.64-1.75,0.93
	c-0.07,0.03-0.14,0.06-0.21,0.09C20,30.76,19.9,30.8,19.8,30.84c-0.07,0.03-0.15,0.06-0.22,0.09c1.23-0.6,3.23-2.73,3.68-3.21
	L24.47,27.71z"/>
<path class="st12" d="M19.58,30.92c0,0-0.01,0-0.01,0c-0.13,0.06-0.25,0.11-0.35,0.13"/>
<g>
	<path class="st2" d="M17.41,27.28c0,0.2-0.16,0.36-0.36,0.36l-1.53,0c-0.2,0-0.36-0.16-0.36-0.36c0-0.2,0.16-0.36,0.36-0.36l1.53,0
		C17.25,26.92,17.41,27.08,17.41,27.28z"/>
</g>
<path class="st6" d="M16.79,25.87c-0.16-0.59-0.17-0.84-0.56-0.88l0,1.91l0.98,0C17.22,26.9,16.96,26.46,16.79,25.87z"/>
<path class="st2" d="M31.54,11.63c-0.09-0.43-0.2-0.86-0.34-1.27c-0.07-0.21-0.15-0.42-0.24-0.62c-0.05-0.1-0.09-0.2-0.14-0.3
	c-0.05-0.11-0.1-0.2-0.17-0.31l-0.24-0.41l-0.32,0.37c-0.18,0.21-0.38,0.4-0.6,0.58c-0.09,0.07-0.18,0.14-0.27,0.2
	c-0.16-1.04-0.44-2.07-0.87-3.04c-0.49-1.14-1.21-2.19-2.11-3.05c-0.45-0.43-0.94-0.82-1.47-1.15c-0.52-0.33-1.07-0.62-1.64-0.86
	c-1.14-0.48-2.34-0.78-3.55-0.94c-1.22-0.16-2.44-0.19-3.66-0.09c-0.15,0.01-0.3,0.03-0.46,0.04l-0.45,0.06
	c-0.29,0.03-0.58,0.07-0.88,0.1c-0.59,0.06-1.18,0.1-1.78,0.14c-1.18,0.07-2.37,0.08-3.54-0.03C8.22,0.99,7.65,0.89,7.08,0.77
	C6.79,0.71,6.51,0.64,6.24,0.54C6.13,0.5,6.02,0.46,5.92,0.41C5.88,0.39,5.8,0.33,5.72,0.28c-0.04-0.03-0.07-0.05-0.1-0.07
	C5.61,0.2,5.6,0.19,5.59,0.19l0.1,0.3c0.03,0.07,0.07,0.14,0.1,0.21c0.08,0.2,0.14,0.41,0.19,0.61c0.1,0.42,0.14,0.82,0.19,1.19
	c0.04,0.37-0.02,0.72-0.19,1c-0.05,0.07-0.1,0.14-0.16,0.2L5.73,3.79C5.71,3.81,5.69,3.82,5.68,3.84L5.61,3.89
	C5.42,4.05,5.27,4.24,5.13,4.4c-0.14,0.16-0.27,0.3-0.4,0.4L4.6,4.89c-0.05,0.03-0.09,0.06-0.14,0.1C4.37,5.06,4.28,5.13,4.2,5.2
	C3.85,5.5,3.55,5.82,3.26,6.17C2.69,6.85,2.21,7.6,1.82,8.4c-0.78,1.59-1.16,3.38-1.06,5.16c0.09,1.73,0.74,3.77,1.55,5.31
	l-0.14,0.06c-0.22,0.16-0.39,0.37-0.52,0.62c-0.23,0.44-0.31,0.93-0.22,1.42c0.1,0.55,0.47,0.99,0.94,1.31c0,0.01,0,0.01,0.01,0.01
	c0.01,0.01,0.02,0.02,0.03,0.02l0.06,0.05c0.04,0.03,0.08,0.07,0.12,0.1c0.08,0.08,0.16,0.16,0.23,0.24
	c0.01,0.01,0.02,0.02,0.03,0.03c0.02,0.02,0.04,0.04,0.05,0.07c0.04,0.04,0.07,0.08,0.11,0.13c0.06,0.09,0.13,0.18,0.19,0.28
	c0.25,0.38,0.47,0.79,0.69,1.2c0.17,0.33,0.35,0.67,0.61,0.95c0.3,0.33,0.78,0.38,1.22,0.36c-0.02-0.04-0.04-0.08-0.06-0.11
	c0-0.01-0.01-0.02-0.01-0.02c-0.06-0.11-0.13-0.22-0.19-0.34c-0.02-0.04-0.04-0.08-0.06-0.12c-0.04-0.06-0.05-0.13-0.04-0.2
	c-0.03,0-0.07-0.01-0.08-0.01c-0.04-0.01-0.08-0.01-0.12-0.03c-0.01,0-0.01,0-0.01,0c-0.02-0.02-0.04-0.03-0.06-0.05
	c-0.01-0.01-0.03-0.04-0.04-0.05c-0.01-0.01-0.02-0.02-0.03-0.03c0.02,0.05,0.04,0.1,0.06,0.14c-0.03-0.01-0.07-0.02-0.11-0.03
	c0,0,0,0-0.01,0c-0.01-0.01-0.02-0.02-0.02-0.03c-0.02-0.02-0.04-0.04-0.06-0.06c-0.01-0.01-0.01-0.02-0.02-0.03
	c-0.21-0.3-0.36-0.65-0.52-0.99c-0.2-0.41-0.4-0.83-0.65-1.22c-0.05-0.07-0.09-0.14-0.14-0.2c-0.1-0.13-0.21-0.25-0.33-0.36
	c-0.08-0.08-0.17-0.16-0.26-0.23c-0.05-0.04-0.11-0.08-0.16-0.12c-0.01,0-0.01,0-0.01,0l-0.01-0.01c-0.01-0.01-0.03-0.03-0.04-0.03
	c-0.03-0.02-0.05-0.04-0.08-0.06c-0.05-0.05-0.11-0.1-0.16-0.16c-0.01,0-0.01-0.01-0.01-0.01c-0.02-0.02-0.04-0.05-0.06-0.07
	c-0.01-0.02-0.02-0.04-0.04-0.06c-0.01-0.03-0.03-0.05-0.05-0.09c-0.01-0.01-0.02-0.03-0.03-0.05C2.3,21.08,2.3,21.07,2.3,21.06
	c-0.03-0.05-0.05-0.11-0.06-0.17c-0.01-0.02-0.03-0.12-0.03-0.12c-0.01-0.09-0.02-0.17-0.02-0.26c0.01-0.03,0.01-0.06,0.01-0.09
	c0,0,0,0,0-0.01c0.01-0.04,0.02-0.09,0.03-0.14c0.01-0.05,0.02-0.1,0.04-0.14c0-0.02,0.03-0.11,0.03-0.11
	c0.04-0.08,0.08-0.15,0.12-0.23c0.02-0.01,0.07-0.08,0.07-0.08c0.01-0.03,0.03-0.04,0.05-0.06c0.03-0.04,0.07-0.07,0.1-0.11
	c0.01,0,0.01-0.01,0.02-0.01c0-0.01,0.01-0.01,0.01-0.01c0.05-0.03,0.1-0.06,0.15-0.09c0.02-0.01,0.04-0.02,0.06-0.03
	c0.01-0.01,0.05-0.02,0.05-0.02c0.07-0.03,0.14-0.05,0.22-0.07c0.03-0.01,0.06-0.01,0.09-0.02c0.01,0,0.01,0,0.01,0
	c0.01,0,0.01,0,0.01,0c0.12-0.02,0.24-0.03,0.37-0.02h0.12c0.01,0,0.05,0.01,0.06,0.01c0.04,0,0.09,0.01,0.13,0.01
	c0.11,0.02,0.22,0.04,0.32,0.07c0.11,0.03,0.21,0.06,0.31,0.09c0.02,0.01,0.07,0.02,0.09,0.03c0.02,0.01,0.03,0.01,0.05,0.02
	c0.01,0.01,0.03,0.01,0.04,0.02c0.04,0.16,0.08,0.32,0.12,0.47c0.02,0.07,0.04,0.13,0.06,0.2c0.06,0.21,0.12,0.43,0.19,0.64
	c-0.02-0.01-0.05-0.02-0.07-0.04c0,0.01,0,0.01,0,0.02C5,20.78,4.96,20.75,4.91,20.73c-0.36-0.17-0.72-0.28-1.04-0.32
	c-0.54-0.08-0.91,0.05-1.03,0.15c0.07,0.07,0.42,0.05,0.9,0.24c0.13,0.05,0.28,0.11,0.42,0.19c0,0.01-0.01,0.02-0.01,0.03
	c0.02,0.01,0.04,0.02,0.05,0.03c-0.22,0.37-0.19,0.88-0.07,1.27S4.5,23.03,4.9,23.2c0.12,0.04,0.23,0.08,0.35,0.11
	c-0.01-0.09-0.01-0.18-0.02-0.27c0-0.13,0-0.25,0.01-0.38c-0.01,0-0.01,0-0.01,0c-0.01,0-0.02-0.01-0.03-0.01
	c-0.06-0.03-0.12-0.06-0.18-0.09C5.01,22.55,5,22.54,4.99,22.53c-0.03-0.02-0.05-0.04-0.07-0.07c-0.01,0-0.04-0.03-0.04-0.03
	c0-0.01-0.01-0.02-0.01-0.02c-0.02-0.04-0.04-0.06-0.06-0.1c0,0,0,0-0.01,0c0-0.02-0.01-0.04-0.02-0.06
	c-0.01-0.05-0.03-0.1-0.04-0.15c-0.05-0.16-0.07-0.28-0.06-0.47v-0.01c0-0.02,0.01-0.03,0.01-0.04c0.01-0.03,0.01-0.06,0.02-0.09
	c0.01-0.02,0.01-0.04,0.02-0.07c0,0,0-0.01,0.01-0.01c0.01-0.02,0.02-0.04,0.03-0.06c0.08,0.06,0.17,0.11,0.26,0.17
	c0.11,0.07,0.21,0.15,0.32,0.23c0.02-0.15,0.06-0.29,0.1-0.43c0.08-0.24,0.19-0.47,0.33-0.69c0.01-0.01,0.02-0.03,0.03-0.05
	c0.02-0.02,0.03-0.05,0.05-0.07C5.83,20.4,5.8,20.3,5.77,20.19c-0.11-0.34-0.2-0.69-0.28-1.04c-0.01-0.05-0.02-0.11-0.04-0.17
	c0-0.03-0.02-0.06-0.04-0.09l0.03-0.24c0.09-0.67,0.12-1.73,0.3-2.39c0.19-0.66,0.42-1.31,0.72-1.91c0.15-0.3,0.32-0.58,0.52-0.84
	c0.2-0.26,0.42-0.48,0.67-0.64c0.26-0.17,0.54-0.26,0.82-0.27c0.27-0.01,0.54,0.05,0.81,0.15c0.01,0,0.02,0.01,0.03,0.01
	c0.01,0.01,0.03,0.01,0.04,0.02l0.78,0.33l-0.32-0.79c-0.03-0.07-0.07-0.17-0.09-0.25c-0.02-0.09-0.04-0.18-0.06-0.27
	c-0.02-0.18-0.02-0.35,0.02-0.48c0.04-0.13,0.11-0.21,0.23-0.28c0.11-0.06,0.26-0.09,0.43-0.1c0.13,0.13,0.25,0.25,0.38,0.37
	c0.22,0.2,0.43,0.39,0.66,0.57c0.05,0.04,0.11,0.09,0.17,0.13c0.07,0.06,0.14,0.11,0.22,0.16c0.07,0.06,0.14,0.11,0.21,0.16h0.01
	c0.59,0.41,1.22,0.76,1.9,1.03c1.47,0.61,3.1,0.81,4.68,0.66c0.8-0.07,1.58-0.24,2.33-0.47c0.38-0.11,0.76-0.25,1.12-0.4
	c0.19-0.07,0.37-0.15,0.55-0.24c0.08-0.04,0.15-0.08,0.23-0.11c0.2,0.32,0.46,0.62,0.76,0.87c0.19,0.16,0.4,0.31,0.63,0.43
	c0.11,0.06,0.23,0.11,0.35,0.16c0.06,0.02,0.12,0.04,0.18,0.06l0.1,0.03c0.02,0.01,0.04,0.01,0.06,0.02
	c-0.01-0.01-0.02-0.01-0.03-0.02l0.08,0.03c-0.02-0.01-0.04-0.01-0.05-0.01c0.4,0.18,0.75,0.45,1.04,0.78
	c0.29,0.34,0.52,0.75,0.68,1.19c0.16,0.43,0.26,0.9,0.32,1.37c0.03,0.24,0.04,0.48,0.05,0.71v0.46l-0.01,0.01
	c-0.02,0.09-0.03,0.18-0.05,0.27c-0.06,0.35-0.14,0.7-0.23,1.05c-0.01,0.04-0.02,0.08-0.03,0.12c0.3,0.38,0.52,0.82,0.62,1.31
	c0.05-0.05,0.11-0.09,0.16-0.13c0.08-0.06,0.17-0.12,0.25-0.18c0.01,0.02,0.02,0.04,0.03,0.06c0,0.01,0,0.01,0,0.01
	c0.01,0.02,0.02,0.05,0.03,0.07c0.01,0.03,0.01,0.06,0.02,0.08c0,0.02,0.01,0.03,0.01,0.05v0.01c0.02,0.19,0,0.31-0.04,0.47
	c-0.01,0.05-0.03,0.1-0.04,0.15c0,0.02-0.01,0.04-0.02,0.06c-0.02,0.04-0.04,0.07-0.05,0.1c-0.01,0.01-0.01,0.01-0.02,0.02
	c0,0-0.02,0.03-0.03,0.04c-0.02,0.02-0.04,0.05-0.07,0.07c-0.01,0.01-0.02,0.02-0.03,0.02c-0.04,0.03-0.09,0.06-0.13,0.09v0.65
	c0.04-0.01,0.07-0.02,0.11-0.03c0.04-0.02,0.07-0.03,0.11-0.05c0,0,0,0,0.01,0c-0.01-0.03-0.01-0.06-0.01-0.08c0,0,0-0.01,0.01-0.01
	c0.37-0.17,0.6-0.5,0.7-0.89c0.11-0.4,0.12-0.91-0.11-1.28c0.15-0.08,0.29-0.14,0.42-0.19c0.53-0.21,0.9-0.17,0.92-0.26
	c0.01,0,0.01-0.01,0.01-0.01c-0.01,0-0.02-0.01-0.03-0.02c-0.01,0-0.02-0.01-0.03-0.01c-0.09-0.05-0.22-0.1-0.41-0.11
	c-0.01-0.01-0.03-0.01-0.05-0.01h-0.06c-0.12,0-0.26,0-0.42,0.03c-0.37,0.06-0.78,0.22-1.19,0.47c0.01-0.04,0.02-0.08,0.03-0.11
	c-0.02,0.01-0.05,0.02-0.07,0.04c0.06-0.22,0.11-0.43,0.16-0.65c0.03-0.01,0.05-0.03,0.07-0.04c0.01-0.03,0.02-0.06,0.02-0.09
	c0.04-0.16,0.07-0.32,0.11-0.48c0.01-0.01,0.02-0.01,0.03-0.02c0.02-0.01,0.04-0.01,0.05-0.02c0.02-0.01,0.07-0.03,0.09-0.04
	c0.09-0.03,0.19-0.06,0.29-0.09c0.1-0.03,0.2-0.06,0.31-0.08c0.04-0.01,0.08-0.02,0.12-0.02c0.01,0,0.05-0.01,0.06-0.01
	c0.04,0,0.08-0.01,0.12-0.01c0.12-0.01,0.23,0,0.35,0.01c0,0,0,0,0.01,0c0,0,0,0,0.01,0c0.03,0.01,0.06,0.01,0.09,0.02
	c0.07,0.01,0.14,0.04,0.21,0.06c0.01,0,0.04,0.01,0.05,0.02c0.02,0.01,0.04,0.02,0.06,0.03c0.05,0.02,0.1,0.05,0.14,0.08
	c0.01,0.01,0.01,0.01,0.01,0.01c0.01,0.01,0.02,0.01,0.02,0.01l0.16,0.16c0,0.01,0.05,0.07,0.06,0.09c0.05,0.07,0.09,0.14,0.12,0.22
	c0,0,0.03,0.09,0.04,0.11c0.02,0.04,0.03,0.09,0.04,0.14c0.02,0.04,0.03,0.09,0.03,0.14l0.01,0.01v0.09c0.01,0.08,0.01,0.17,0,0.26
	c0,0-0.02,0.09-0.02,0.12c-0.02,0.06-0.04,0.12-0.06,0.17c0,0.01,0,0.02-0.01,0.03c-0.01,0.02-0.02,0.04-0.03,0.06
	c-0.01,0.03-0.03,0.06-0.05,0.09c-0.01,0.02-0.02,0.04-0.03,0.05c-0.02,0.03-0.03,0.05-0.05,0.08c0,0-0.01,0-0.01,0.01
	c-0.05,0.06-0.1,0.11-0.16,0.16c-0.02,0.02-0.04,0.05-0.07,0.07c0,0-0.02,0.02-0.04,0.03v0.01c-0.01,0-0.01,0-0.01,0
	c-0.05,0.04-0.1,0.08-0.16,0.12c-0.08,0.07-0.16,0.16-0.24,0.24c-0.33,0.36-0.59,0.78-0.81,1.21c-0.21,0.38-0.38,0.78-0.58,1.17
	c-0.07,0.16-0.15,0.31-0.25,0.45c-0.01,0.01-0.01,0.03-0.02,0.04c-0.01,0.01-0.04,0.04-0.05,0.05c-0.01,0.02-0.03,0.04-0.05,0.05
	c0,0,0,0,0,0.01c-0.01,0-0.01,0-0.01,0c-0.04,0.01-0.07,0.02-0.11,0.03c-0.01,0-0.04,0-0.06,0.01c-0.08,0.28-0.19,0.55-0.34,0.8
	c0.42,0,0.88-0.06,1.16-0.4c0.24-0.29,0.4-0.64,0.56-0.97c0.2-0.41,0.39-0.83,0.62-1.22c0.06-0.1,0.12-0.2,0.18-0.29
	c0.03-0.05,0.06-0.09,0.09-0.14c0.02-0.02,0.04-0.04,0.05-0.06l0.03-0.03c0.06-0.08,0.14-0.16,0.21-0.24
	c0.04-0.04,0.08-0.07,0.11-0.11c0.02-0.02,0.04-0.03,0.06-0.05c0.01-0.01,0.02-0.02,0.04-0.03c0,0,0,0,0-0.01
	c0.44-0.33,0.78-0.78,0.86-1.34c0.07-0.49-0.02-0.98-0.25-1.41c-0.13-0.25-0.31-0.45-0.52-0.6l-0.06-0.03
	c0.4-0.63,0.74-1.29,1.01-1.99c0.04-0.1,0.08-0.21,0.11-0.31c0.04-0.1,0.07-0.21,0.11-0.31c0.05-0.21,0.12-0.42,0.17-0.64
	c0.1-0.42,0.17-0.86,0.22-1.29C31.75,13.38,31.7,12.49,31.54,11.63z M30.96,14.19c-0.04,0.4-0.1,0.81-0.2,1.2
	c-0.04,0.2-0.1,0.4-0.16,0.59l-0.1,0.29c-0.03,0.1-0.06,0.19-0.1,0.29c-0.27,0.68-0.61,1.34-1.01,1.96l0.07,0.03
	c0.05,0.01,0.11,0.02,0.17,0.04l-0.05,0.01l-0.33,0.13c0.05-0.07,0.09-0.13,0.13-0.2c-0.12-0.02-0.25-0.04-0.38-0.05
	c-0.14-0.02-0.29-0.03-0.44-0.03c0,0,0,0-0.01,0h-0.18c-0.22,0.01-0.44,0.04-0.66,0.1c-0.01,0.01-0.03,0.01-0.04,0.02v-0.16
	c-0.01-0.26-0.03-0.52-0.06-0.78c-0.06-0.52-0.18-1.04-0.36-1.54c-0.05-0.13-0.1-0.25-0.16-0.38l-1.35-1.65
	c-0.19-0.13-0.39-0.25-0.6-0.34l-0.03-0.01l-0.05-0.02L25,13.68l-0.07-0.02c-0.04-0.02-0.09-0.03-0.14-0.05
	c-0.09-0.04-0.19-0.08-0.28-0.13c-0.18-0.09-0.35-0.21-0.5-0.34c-0.24-0.2-0.44-0.43-0.6-0.69c0.29-0.2,0.54-0.39,0.77-0.58
	c0.11-0.1,0.21-0.19,0.31-0.28c0.09-0.09,0.18-0.18,0.26-0.27c0.08-0.09,0.16-0.17,0.23-0.26c0.75-0.92,0.75-1.59,0.75-1.59
	c-0.51,1.17-2.3,2.2-2.83,2.48c-0.05,0.03-0.08,0.05-0.11,0.06c-0.03,0.01-0.04,0.02-0.04,0.02c-0.14,0.08-0.32,0.17-0.48,0.25
	c-0.17,0.07-0.34,0.15-0.52,0.22c-0.34,0.14-0.69,0.27-1.05,0.38c-0.72,0.22-1.45,0.37-2.2,0.45c-0.74,0.08-1.49,0.08-2.22-0.01
	c-0.47-0.06-0.94-0.15-1.39-0.28c-0.26-0.07-0.52-0.16-0.78-0.25c-0.79-0.3-1.53-0.72-2.22-1.22c-0.53-0.38-1.02-0.81-1.48-1.28
	C9.36,9.2,8.48,7.95,7.63,6.67L7.56,6.7c0.53,1.32,1.28,2.56,2.22,3.64c-0.07,0.02-0.14,0.05-0.21,0.09
	c-0.13,0.07-0.25,0.17-0.35,0.29c-0.09,0.12-0.16,0.26-0.2,0.4c-0.07,0.22-0.08,0.44-0.06,0.64c-0.06-0.03-0.12-0.07-0.19-0.11
	c-0.29-0.18-0.58-0.37-0.86-0.58c-0.28-0.2-0.55-0.42-0.81-0.65c-0.27-0.23-0.51-0.49-0.74-0.76c0.18,0.31,0.38,0.6,0.6,0.88
	c0.23,0.28,0.46,0.55,0.71,0.81c0.19,0.19,0.39,0.38,0.59,0.57c-0.35,0.04-0.69,0.17-0.98,0.36c-0.34,0.22-0.62,0.5-0.85,0.8
	c-0.23,0.31-0.42,0.63-0.59,0.96c-0.33,0.66-0.57,1.34-0.77,2.04c-0.12,0.46-0.12,1.29-0.2,1.76c-0.09-0.11-0.28-0.58-0.36-0.69
	c-0.21-0.31-0.39-0.64-0.55-0.99c-0.31-0.69-0.51-1.43-0.6-2.2c-0.09-0.76-0.08-1.55,0.02-2.32C3.46,11,3.59,10.36,3.77,9.73
	C3.8,9.6,3.84,9.47,3.88,9.34C3.82,9.5,3.76,9.66,3.7,9.82C3.49,10.4,3.32,11,3.2,11.61c-0.16,0.78-0.24,1.58-0.2,2.38
	c0.03,0.8,0.18,1.61,0.46,2.38c0.14,0.38,0.43,1.12,0.63,1.48c0.05,0.09,0.1,0.17,0.16,0.25c-0.15,0-0.29,0.02-0.43,0.04
	c-0.22,0.03-0.44,0.07-0.65,0.13c-0.12,0.03-0.23,0.07-0.34,0.1c-0.71-1.4-1.3-3.29-1.37-4.85c-0.01-0.2-0.02-0.4-0.02-0.59
	c0.01-1.09,0.21-2.17,0.57-3.19c0.13-0.36,0.27-0.7,0.44-1.04c0.36-0.75,0.81-1.45,1.34-2.09C4.06,6.3,4.34,6,4.65,5.73
	C4.73,5.67,4.81,5.6,4.89,5.54L5,5.45l0.14-0.09C5.35,5.2,5.51,5.02,5.65,4.85c0.14-0.16,0.27-0.31,0.41-0.42l0.06-0.05
	c0.03-0.02,0.05-0.04,0.07-0.06c0.05-0.04,0.1-0.08,0.14-0.13C6.42,4.1,6.5,4,6.57,3.89c0.15-0.22,0.25-0.47,0.3-0.72
	c0.04-0.26,0.04-0.51,0.01-0.75c-0.04-0.4-0.21-0.74-0.42-1.05c0.12,0.14,0.25,0.28,0.38,0.41C7,1.94,7.16,2.1,7.32,2.26
	C8,2.91,8.73,3.51,9.51,4.04c0.77,0.54,1.59,1.04,2.46,1.42c0.43,0.19,0.88,0.36,1.35,0.46c0.23,0.06,0.47,0.1,0.71,0.12
	c0.24,0.01,0.48,0.01,0.71-0.04V5.99c-0.47-0.05-0.9-0.2-1.31-0.39c-0.42-0.18-0.82-0.4-1.21-0.63c-0.79-0.47-1.54-0.99-2.28-1.53
	C9.8,3.33,9.65,3.22,9.51,3.11C9.44,3.06,9.37,3.01,9.3,2.96C9.23,2.91,9.15,2.85,9.08,2.79C8.79,2.58,8.51,2.36,8.22,2.14
	c2.27,1.48,4.75,1.39,4.75,1.39c0.11,0.01,0.22,0.02,0.33,0.02h0.14c0.08,0,0.16,0,0.24-0.01h0.23c0.08,0,0.16-0.01,0.24-0.01h0.08
	c0.1,0,0.21-0.01,0.31-0.01h0.02c0.14-0.01,0.27-0.01,0.41-0.01c0.06-0.01,0.13-0.01,0.2-0.01c0.19,0,0.39-0.01,0.58,0h0.23
	c0.4,0.01,0.79,0.03,1.18,0.09c0.13,0.01,0.26,0.03,0.4,0.06C17.7,3.67,17.85,3.71,18,3.74c0.14,0.04,0.29,0.08,0.43,0.12
	c0.29,0.09,0.58,0.19,0.87,0.31c0.56,0.22,1.11,0.5,1.62,0.85L20.93,5l0.02-0.02c-0.48-0.39-1.01-0.73-1.56-1.01
	c-0.28-0.15-0.56-0.28-0.85-0.4c-0.15-0.05-0.29-0.11-0.44-0.17c-0.15-0.04-0.3-0.1-0.45-0.14c-0.31-0.08-0.62-0.15-0.93-0.21
	c-0.93-0.16-1.88-0.2-2.79-0.27c-0.22-0.01-0.44-0.03-0.65-0.05c-0.01,0-0.02,0-0.02,0c-1.27-0.11-2.48-0.31-3.69-0.74
	C9.12,1.84,8.66,1.68,8.21,1.52L8.18,1.51l-1.71-0.6L6.43,0.88l1.82,0.64c0.16,0.03,0.33,0.05,0.5,0.07
	c1.21,0.13,2.43,0.14,3.63,0.09c0.61-0.03,1.21-0.06,1.81-0.12c0.3-0.02,0.6-0.06,0.9-0.09l0.44-0.04c0.15-0.02,0.29-0.03,0.44-0.04
	c1.17-0.07,2.35-0.03,3.51,0.14c1.16,0.16,2.3,0.45,3.37,0.9c0.53,0.23,1.04,0.5,1.53,0.81c0.48,0.32,0.94,0.67,1.35,1.07
	c0.41,0.4,0.79,0.84,1.12,1.31c0.32,0.47,0.6,0.98,0.84,1.5c0.47,1.06,0.75,2.2,0.91,3.36l0.06,0.47l0.43-0.2
	c0.17-0.08,0.3-0.16,0.43-0.25c0.14-0.09,0.27-0.18,0.4-0.29c0.01,0,0.01-0.01,0.02-0.01c-0.01,0.11-0.02,0.21-0.03,0.32
	c-0.04,0.42-0.1,0.83-0.17,1.24c-0.07,0.42-0.15,0.83-0.27,1.23c-0.12,0.39-0.26,0.8-0.53,1.13c0.32-0.29,0.52-0.68,0.7-1.07
	s0.32-0.79,0.46-1.2c0.13-0.41,0.24-0.82,0.34-1.24c0.02-0.06,0.03-0.12,0.04-0.18c0.02,0.05,0.04,0.1,0.06,0.15
	c0.13,0.39,0.23,0.78,0.31,1.18C31,12.56,31.05,13.38,30.96,14.19z"/>
</svg>
